<svg xmlns="http://www.w3.org/2000/svg" xmlns:xlink="http://www.w3.org/1999/xlink" width="360.631" height="265.531" viewBox="0 0 360.631 265.531">
  <defs>
    <linearGradient id="linear-gradient" x1="0.5" y1="1" x2="0.5" gradientUnits="objectBoundingBox">
      <stop offset="0" stop-color="gray" stop-opacity="0.251"/>
      <stop offset="0.54" stop-color="gray" stop-opacity="0.122"/>
      <stop offset="1" stop-color="gray" stop-opacity="0.102"/>
    </linearGradient>
  </defs>
  <g id="Group_350" data-name="Group 350" transform="translate(-1249.368 -2086.734)">
    <g id="undraw_security_o890" transform="translate(1238.999 2086.733)">
      <path id="Path_554" data-name="Path 554" d="M373.859,191.483c-8.6,17.751-26.077,29.62-44.184,37.447a167.963,167.963,0,0,1-77.7,12.954q-6.96-.463-13.877-1.48a175.025,175.025,0,0,1-46.4-13.511q-6.393-2.879-12.527-6.286A160.252,160.252,0,0,1,159.6,207.8q-2.341-1.788-4.618-3.666c-1.053-.868-2.1-1.755-3.154-2.617a39.806,39.806,0,0,0-7.1-4.835,25.355,25.355,0,0,0-2.377-1.049c-8.122-3.09-17.488-1.924-25.944.486-6.432,1.833-12.7,4.343-19.127,6.134a63.475,63.475,0,0,1-8.715,1.852,46.379,46.379,0,0,1-19.58-1.72l-.541-.168q-1.36-.427-2.7-.936l-.541-.207q-1.3-.5-2.536-1.072l-.541-.246q-1.3-.6-2.536-1.273c-.3-.155-.593-.324-.884-.483a53.006,53.006,0,0,1-12.682-9.874c-.107-.107-.207-.217-.324-.324-.515-.557-1.02-1.124-1.509-1.7-.181-.214-.363-.427-.541-.648q-.871-1.062-1.681-2.173c-.081-.107-.159-.217-.236-.324a46.827,46.827,0,0,1-5.46-9.874c-.045-.107-.087-.217-.126-.324q-.648-1.668-1.182-3.391c-.146-.479-.285-.972-.408-1.451-.042-.143-.081-.288-.117-.431-1.788-7.037-1.992-14.353-1.992-21.627v-2.542c.052-11.766.233-23.732,1.969-35.336a1.475,1.475,0,0,1,.036-.24,110.356,110.356,0,0,1,2.367-11.6,85.577,85.577,0,0,1,3.987-11.756c3.993-9.392,9.8-17.938,16.248-25.86,16.241-19.933,37.541-36.667,62.472-42.93a91.935,91.935,0,0,1,78.389,16.97c6.607,5.259,12.543,11.487,19.962,15.519,6.477,3.511,14.059,4.965,21,2.2,5.732-2.283,9.463-3.417,15.9-3.07a133.286,133.286,0,0,1,38.979,8.164c.505.185,1.01.376,1.512.567,32.615,12.478,60.652,37.269,75.225,69.127q.58,1.263,1.124,2.546C380.3,147.914,383.445,171.7,373.859,191.483Z" transform="translate(-8.734 -12.967)" fill="#e02525" opacity="0.1"/>
      <ellipse id="Ellipse_124" data-name="Ellipse 124" cx="28.59" cy="4.592" rx="28.59" ry="4.592" transform="translate(10.37 231.437)" fill="#e02525" opacity="0.1"/>
      <ellipse id="Ellipse_125" data-name="Ellipse 125" cx="50.693" cy="4.923" rx="50.693" ry="4.923" transform="translate(244.747 255.687)" fill="#e02525" opacity="0.1"/>
      <path id="Path_556" data-name="Path 556" d="M231.929,109.45H226.7v-9.371c0-10.575-9.134-19.366-20.589-19.526A21.882,21.882,0,0,0,191.19,86.12a18.62,18.62,0,0,0-6.233,13.7v9.631h-5.215c-4.8.014-8.683,3.6-8.7,8.029V156.01c.015,4.429,3.9,8.015,8.7,8.029h52.187c4.8-.014,8.681-3.6,8.694-8.029V117.479c-.013-4.428-3.9-8.015-8.694-8.029ZM208.883,134.5v13.8a2.985,2.985,0,0,1-2.893,2.891,3.2,3.2,0,0,1-2.249-.776,2.717,2.717,0,0,1-.945-2.037V134.491a6.27,6.27,0,0,1-3.722-7.2,7.09,7.09,0,0,1,13.53,0,6.27,6.27,0,0,1-3.722,7.2Zm11.741-25.048h-29.58V99.819c0-7.537,6.619-13.647,14.784-13.647s14.784,6.11,14.784,13.647Z" transform="translate(-117.734 47.033)" opacity="0.1"/>
      <path id="Path_557" data-name="Path 557" d="M236.3,111.815h-5.6V101.466c0-11.677-9.79-21.384-22.069-21.561a23.06,23.06,0,0,0-16,6.147,20.836,20.836,0,0,0-6.681,15.127v10.635h-5.59a9.131,9.131,0,0,0-9.323,8.866v42.549a9.131,9.131,0,0,0,9.323,8.866H236.3a9.127,9.127,0,0,0,9.319-8.866V120.681a9.127,9.127,0,0,0-9.319-8.866Zm-24.7,27.659v15.239a3.25,3.25,0,0,1-3.1,3.193,3.368,3.368,0,0,1-2.41-.856,3.039,3.039,0,0,1-1.013-2.25V139.466a6.976,6.976,0,0,1-3.989-7.953,7.535,7.535,0,0,1,14.5,0,6.976,6.976,0,0,1-3.989,7.953Zm12.585-27.659H192.481V101.179c0-8.323,7.095-15.07,15.847-15.07s15.847,6.747,15.847,15.07Z" transform="translate(-120.734 46.033)" fill="#e02525"/>
      <path id="Path_558" data-name="Path 558" d="M337.221,275.06a9.221,9.221,0,0,0-.868-2.465l-3.886-5.8h.023s-.612-2.915,0-4.346-2.183-4.952-2.183-4.952a2.088,2.088,0,0,1,.547-1.972c.887-1.088-.547-4.275-.547-4.275s-.68-6.655-.748-7.672-.615-6.652-.615-6.652l-1.3-11.947-2.306-31.663-.042-.593c.285-.139.437-.227.437-.227l-.46-17.508.4-.359c3.478-3.148,11.5-10.435,11.419-10.593s-.972-12.167-1.075-15.173a18.082,18.082,0,0,0-1.38-6.212c-.2-.4-.781-3.025-1.02-4.136-.065-.3-.107-.5-.107-.5s-2.351-4.482-2.147-6.519.612-3.562-4.4-4.275a19.427,19.427,0,0,1-6.717-2.341,19.107,19.107,0,0,0-4.812-2.409s-1.406-2.591-2.384-1.713a13.6,13.6,0,0,1-.923-2.886l-.029-.181a9.544,9.544,0,0,0,3.77-5.4c.032-.123.058-.249.087-.372a1.053,1.053,0,0,0,.3.055c.852,0,1.376-.949,2.173-1.25.324-.126.722-.146.972-.4a.949.949,0,0,0,.214-.716,1.465,1.465,0,0,0,0-.266q0-.047,0-.094v.032c-.217-1.179-1.13-2.225-1.03-3.423.1-1.127,1.088-2.118,1.007-3.216a1.751,1.751,0,0,0-.023-.259v.039a2.773,2.773,0,0,0-.648-1.146,3.679,3.679,0,0,0-1.334-1.121c-.45-.2-.972-.243-1.393-.479-1.237-.674-1.234-2.429-1.969-3.627a3.209,3.209,0,0,0-3-1.487c-.92.091-1.752.58-2.662.738a6.961,6.961,0,0,1-3.689-.648,10.155,10.155,0,0,0-3.64-.972,3.091,3.091,0,0,0-3.018,1.843c-.2.648-.1,1.344-.259,2a4.358,4.358,0,0,1-2.348,2.565c-.648.359-1.418.771-1.619,1.451v-.052a1.241,1.241,0,0,0-.032.165,1.215,1.215,0,0,0,0,.217,4.082,4.082,0,0,0,.411,1.354,3.734,3.734,0,0,1-.019,2.61c-.24.615-.648,1.156-.881,1.768a3.483,3.483,0,0,0-.214.887v-.052a3.571,3.571,0,0,0,0,.415,2.915,2.915,0,0,0,.324,1.36,2.442,2.442,0,0,0,1.454,1.221c.648.149,1.053-.486,1.736-.324a2.729,2.729,0,0,1,.359.113c.023.146.045.291.071.434a9.518,9.518,0,0,0,3.284,5.561,2.092,2.092,0,0,0,.036.236h0a21.745,21.745,0,0,1,.269,3.906s-1.02-1.493-2.419,1.389a29.391,29.391,0,0,1-4.91,2.345c-1.26.24-5.732,1.8-5.732,1.8a3.945,3.945,0,0,1-2.319.748c-1.4,0-2.555,3.054-2.387,4.715s-.1,2.886-1.4,2.954-.589,2.7-.58,2.746l-.12.567c-.253,1.159-.8,3.647-1,4.035a18.136,18.136,0,0,0-1.383,6.212c-.1,3.005-.972,14.969-1.072,15.173-.068.133,5.428,5.156,9.291,8.666l.56.505-1.778,16.607a4.434,4.434,0,0,0,1.827,3.239c0,.194,0,.392-.019.6a20.762,20.762,0,0,1-.544,4.91c-.544,1.088-.408,6.924-.408,6.924s-.547,11.879-1.227,13.171a8.985,8.985,0,0,0-.615,4.534c.2.531-.683,14.8-.683,14.8l-.68,6.383s.2,6.108-.411,6.244-.955,4.346-.955,4.346-2.18,2.986-1.227,4.071-.139,1.564-.24,1.833-2.079,1.3-.648,5.091a1.109,1.109,0,0,0,.045.11c-1.341,1.862-5.59,7.87-5.331,8.783a2.406,2.406,0,0,0,1.134,1.36c1,.6,2.717.878,5.447,0,4.534-1.461,4.21-2.513,4.21-2.513a1.924,1.924,0,0,1,1.911-1.833A5.367,5.367,0,0,0,290.4,270l-.22-.819-.3-1.133c.036-.324.266-.891,1.3-1.2,1.571-.476,1.159-3.462,1.159-3.462s-.136-3.122.544-3.53.411-5.567.411-5.567a38.258,38.258,0,0,1,1.839-6.247c1.088-2.513,2.39-17.443,2.39-17.443s.884-7.332,1.7-9.437a53.416,53.416,0,0,0,1.571-8.009s5.049-9.777,5.114-11.95c0,0,.648-2.037,1.3.2s2.468,7.6,2.468,7.6l1.771,6.584,2.115,9.842,1.367,8.284s-.207,3.122.324,4.21,1.3,3.595.887,4.071.816,2.717,1.159,3.19,0,10.522,0,10.522,1.567,8.553,3.818,10.04a2.752,2.752,0,0,0,.5.259c-.032.926-.065,2.167-.023,2.814a1.079,1.079,0,0,0,.071.424,11.838,11.838,0,0,0,3,2.105c.479,0,2.18,1.189,2.251,1.765s4.984,3.018,5.68,3.09,4.071.677,4.534-.272a1.571,1.571,0,0,0,.094-.878Zm-12.07-122.327.35.3s.359,2.8.615,3.64a7.03,7.03,0,0,1-.052,2.471,5.684,5.684,0,0,0,.359,1.781c.3.612-.615,1.943-.615,1.943h-.819l-.256-10.486Zm-24.364-31.31v-.062a.2.2,0,0,0-.01.062Zm-12.582,40.369a1.182,1.182,0,0,1-.052-.865,2.591,2.591,0,0,0,.172-.479,7.42,7.42,0,0,0,.188-1.3.093.093,0,0,0,0-.016,6.851,6.851,0,0,1-.049-2.455c.243-.8.612-3.64.612-3.64l.233-.2.541-.47a3.847,3.847,0,0,1,.039-.463,36.068,36.068,0,0,1,.058,5.318c-.272.269-1.263,2.915-1.023,3.018a12.393,12.393,0,0,1-.211,2.52,5.164,5.164,0,0,1-.508-.975Z" transform="translate(-8.734 -12.967)" fill="url(#linear-gradient)"/>
      <path id="Path_559" data-name="Path 559" d="M314.308,124.011v4.029l-8.265,4.155s-8.207-4.965-6.182-6.94c1.3-1.25,1.046-4.683.7-7.044h0c-.2-1.373-.44-2.38-.44-2.38s14.742-4.21,12.514-1.014a5.027,5.027,0,0,0-.554,3.821A17.358,17.358,0,0,0,314.308,124.011Z" transform="translate(-8.734 -12.967)" fill="#efc7b6"/>
      <path id="Path_560" data-name="Path 560" d="M291.667,163.408,290.6,176.53s-1.6-1.448-3.663-3.332c-3.831-3.494-9.272-8.491-9.207-8.624.1-.2.972-12.109,1.065-15.1a18.071,18.071,0,0,1,1.367-6.179,38.418,38.418,0,0,0,.972-4.019c.078-.359.126-.593.126-.593l1.788-.719s7.449,8.31,7.449,8.462-.508,6.535-.508,6.535l-.528.46-.23.2s-.356,2.788-.609,3.624a6.505,6.505,0,0,0,.049,2.442h0a7.534,7.534,0,0,1-.185,1.3,2.714,2.714,0,0,1-.172.476,1.188,1.188,0,0,0,.052.861,5.205,5.205,0,0,0,.557,1.065Z" transform="translate(-8.734 -12.967)" fill="#3f3d56"/>
      <path id="Path_561" data-name="Path 561" d="M336.81,164.574c.078.159-7.866,7.41-11.309,10.541l-1.561,1.415-1.056-13.123h2.737s.913-1.318.609-1.927a5.632,5.632,0,0,1-.353-1.771,7.06,7.06,0,0,0,.049-2.458c-.253-.839-.609-3.624-.609-3.624l-.347-.3-.411-.359s-.508-6.383-.508-6.535,7.449-8.462,7.449-8.462l1.775.709s.039.191.1.5c.24,1.1.813,3.718,1.01,4.116a18.07,18.07,0,0,1,1.367,6.179C335.838,152.465,336.706,164.37,336.81,164.574Z" transform="translate(-8.734 -12.967)" fill="#3f3d56"/>
      <path id="Path_562" data-name="Path 562" d="M336.842,275.96c-.476.946-3.818.324-4.508.272s-5.561-2.5-5.629-3.077-1.755-1.755-2.228-1.755a11.841,11.841,0,0,1-2.973-2.1,1.033,1.033,0,0,1-.068-.421c-.071-1.111.068-3.97.068-3.97l9.8.541,4.761,7.16a9.236,9.236,0,0,1,.861,2.452,1.619,1.619,0,0,1-.081.894Z" transform="translate(-8.734 -12.967)" fill="#3f3d56"/>
      <path id="Path_563" data-name="Path 563" d="M336.842,275.96c-.476.946-3.818.324-4.508.272s-5.561-2.5-5.629-3.077-1.755-1.755-2.228-1.755a11.841,11.841,0,0,1-2.973-2.1,1.033,1.033,0,0,1-.068-.421c-.071-1.111.068-3.97.068-3.97l9.8.541,4.761,7.16a9.236,9.236,0,0,1,.861,2.452,1.619,1.619,0,0,1-.081.894Z" transform="translate(-8.734 -12.967)" opacity="0.1"/>
      <path id="Path_564" data-name="Path 564" d="M336.842,275.96c-.476.946-3.818.324-4.508.272s-5.561-2.5-5.629-3.077-1.755-1.755-2.228-1.755a11.841,11.841,0,0,1-2.973-2.1,1.033,1.033,0,0,1-.068-.421l3.174,2.008a13.393,13.393,0,0,1,2.568,2.063c.541.768,4.8,2.364,5.156,2.4a24.269,24.269,0,0,1,4.589-.285,1.619,1.619,0,0,1-.081.894Z" transform="translate(-8.734 -12.967)" opacity="0.1"/>
      <path id="Path_565" data-name="Path 565" d="M290.531,270.05a5.3,5.3,0,0,1-3.239,1.856,1.908,1.908,0,0,0-1.891,1.823s.324,1.049-4.155,2.5c-2.7.871-4.4.6-5.4,0a2.409,2.409,0,0,1-1.124-1.354c-.3-1.078,5.674-9.288,5.674-9.288l5.441-.324,3.886,1.755.6,2.225Z" transform="translate(-8.734 -12.967)" fill="#3f3d56"/>
      <path id="Path_566" data-name="Path 566" d="M290.531,270.05a5.3,5.3,0,0,1-3.239,1.856,1.908,1.908,0,0,0-1.891,1.823s.324,1.049-4.155,2.5c-2.7.871-4.4.6-5.4,0a2.409,2.409,0,0,1-1.124-1.354c-.3-1.078,5.674-9.288,5.674-9.288l5.441-.324,3.886,1.755.6,2.225Z" transform="translate(-8.734 -12.967)" opacity="0.1"/>
      <path id="Path_567" data-name="Path 567" d="M290.531,270.05a5.3,5.3,0,0,1-3.239,1.856,1.908,1.908,0,0,0-1.891,1.823s.324,1.049-4.155,2.5c-2.7.871-4.4.6-5.4,0,2.549-.266,8.181-1.875,8.744-2.432.677-.677,1.522-2.536,2.1-2.568a22.548,22.548,0,0,0,3.637-2Z" transform="translate(-8.734 -12.967)" fill="none"/>
      <path id="Path_568" data-name="Path 568" d="M290.531,270.05a5.3,5.3,0,0,1-3.239,1.856,1.908,1.908,0,0,0-1.891,1.823s.324,1.049-4.155,2.5c-2.7.871-4.4.6-5.4,0,2.549-.266,8.181-1.875,8.744-2.432.677-.677,1.522-2.536,2.1-2.568a22.548,22.548,0,0,0,3.637-2Z" transform="translate(-8.734 -12.967)" opacity="0.1"/>
      <path id="Path_569" data-name="Path 569" d="M332.246,262.517c-.609,1.418,0,4.323,0,4.323s-9.068.473-11.283-1.014-3.783-10-3.783-10,.324-10,0-10.47-1.555-2.7-1.15-3.174-.324-2.973-.878-4.055-.324-4.187-.324-4.187l-1.354-8.245-2.092-9.793-1.778-6.555s-1.823-5.337-2.442-7.565-1.273-.2-1.273-.2c-.065,2.163-5.065,11.892-5.065,11.892a53.524,53.524,0,0,1-1.555,7.97c-.81,2.092-1.691,9.392-1.691,9.392s-1.3,14.862-2.364,17.362a38.3,38.3,0,0,0-1.8,6.215s.272,5.136-.4,5.541-.567,3.514-.567,3.514.4,2.97-1.15,3.446S290,268.4,290,268.4s-8.647,1.418-10.065-2.367.541-4.793.648-5.065,1.185-.742.24-1.827,1.214-4.051,1.214-4.051.34-4.187.946-4.323.408-6.215.408-6.215l.674-6.351s.881-14.188.677-14.729a9,9,0,0,1,.609-4.534c.677-1.3,1.214-13.11,1.214-13.11s-.136-5.807.4-6.888a20.074,20.074,0,0,0,.538-4.887c.058-1.467.071-2.682.071-2.682l7.565-2.837,9.716-3.106,8.174,3.919,11.96,2.3.149,2.063,2.283,31.514,1.3,11.889s.541,5.606.609,6.62.742,7.637.742,7.637,1.418,3.174.541,4.255a2.051,2.051,0,0,0-.541,1.943S332.855,261.1,332.246,262.517Z" transform="translate(-8.734 -12.967)" fill="#3f3d56"/>
      <path id="Path_570" data-name="Path 570" d="M312.637,114.816a5.027,5.027,0,0,0-.554,3.821,9.5,9.5,0,0,1-11.52-.431h0c-.2-1.373-.44-2.38-.44-2.38S314.865,111.623,312.637,114.816Z" transform="translate(-8.734 -12.967)" opacity="0.1"/>
      <path id="Path_571" data-name="Path 571" d="M316.083,110.684a9.444,9.444,0,1,1-2.766-6.723A9.489,9.489,0,0,1,316.083,110.684Z" transform="translate(-8.734 -12.967)" fill="#efc7b6"/>
      <path id="Path_572" data-name="Path 572" d="M309.324,113.485l-3.109,55.363L289.326,165.3l-3.345-22.194,3.313-29.795,2.494.321,4.4.56,4.356.269,4.722-.525Z" opacity="0.1"/>
      <path id="Path_573" data-name="Path 573" d="M309.324,113.89l-3.109,55.363-16.889-3.546-3.345-22.194,3.313-29.791,2.494.317,4.4.56,4.356.269,4.722-.525Z" fill="#ebebeb"/>
      <path id="Path_574" data-name="Path 574" d="M304.175,128.344l6.082.2-1.71,2.393s.12,4.835.933,6.221.573,22.8.573,22.8l-1.619,3.073-2.769-3.446.036-28.273Z" transform="translate(-8.734 -12.967)" fill="#3f3d56"/>
      <path id="Path_575" data-name="Path 575" d="M304.175,128.344l6.082.2-1.71,2.393s.12,4.835.933,6.221.573,22.8.573,22.8l-1.619,3.073-2.769-3.446.036-28.273Z" transform="translate(-8.734 -12.967)" opacity="0.1"/>
      <path id="Path_576" data-name="Path 576" d="M304.965,109.094l-5.674,6.283,3.242,3.378,5.373-5.237Z" opacity="0.1"/>
      <path id="Path_577" data-name="Path 577" d="M304.965,108.689l-5.674,6.283,3.242,3.378,5.373-5.237Z" fill="#ebebeb"/>
      <path id="Path_578" data-name="Path 578" d="M296.894,115.072l-5.745-5.742-.541,3.005,2.636,6.587Z" opacity="0.1"/>
      <path id="Path_579" data-name="Path 579" d="M297.1,114.667l-5.742-5.742-.541,3.005,2.636,6.587Z" fill="#ebebeb"/>
      <path id="Path_580" data-name="Path 580" d="M325.167,193.711a28.036,28.036,0,0,1-8.744,2.529c-5.574.709-9.22-6.383-9.22-6.383l-2.128,2.769c-.677,2.941-10.979,3.682-15.166,2.568a6.7,6.7,0,0,1-2.4-1.137c.058-1.467.071-2.682.071-2.682l7.565-2.837,9.716-3.106,8.174,3.919,11.96,2.3Z" transform="translate(-8.734 -12.967)" opacity="0.1"/>
      <path id="Path_581" data-name="Path 581" d="M318.058,126.861l-3.106,55.36-16.892-3.546-3.352-22.191,3.31-29.795,2.494.324a30.273,30.273,0,0,1-.366,3.239c-.4,1.895,2.1,15.338,2.1,15.338s4.751,15.075,6.888,12.9,5.182-13.647,5.182-13.647c2.063-4.255.036-16.193-.117-16.432a4.823,4.823,0,0,1-.194-1.085Z" transform="translate(-8.734 -12.967)" opacity="0.1"/>
      <path id="Path_582" data-name="Path 582" d="M325.355,169.7l.142,5.425-1.561,1.415-1.053-13.132h2.332Z" transform="translate(-8.734 -12.967)" opacity="0.1"/>
      <path id="Path_583" data-name="Path 583" d="M288.675,159.693h0a7.535,7.535,0,0,1-.185,1.3c0-.12,0-.188-.026-.2C288.367,160.765,288.484,160.27,288.675,159.693Z" transform="translate(-8.734 -12.967)" opacity="0.1"/>
      <path id="Path_584" data-name="Path 584" d="M291.667,163.408,290.6,176.53s-1.6-1.448-3.663-3.332l.246-2.325s.871-5.713,1.189-8.53a5.209,5.209,0,0,0,.557,1.065Z" transform="translate(-8.734 -12.967)" opacity="0.1"/>
      <path id="Path_585" data-name="Path 585" d="M300.829,122.093s-1.01-1.486-2.4,1.383a28.979,28.979,0,0,1-4.858,2.332c-1.244.236-5.667,1.791-5.667,1.791a3.912,3.912,0,0,1-2.3.742c-1.386,0-2.536,3.041-2.367,4.7s-.1,2.873-1.383,2.941-.576,2.733-.576,2.733l8.547,9.8s.541,9.019.272,9.291-1.25,2.915-1.014,3.005-1.3,10.065-1.3,10.065l-2.06,19.357s0,3.239,4.191,4.356,14.5.379,15.163-2.562l2.128-2.772s3.647,7.1,9.22,6.386a26.8,26.8,0,0,0,9.123-2.737l-.609-23.2-.4-16.721,8.7-14.3s-2.332-4.459-2.128-6.477.606-3.546-4.359-4.255c0,0-4.187-.625-6.655-2.332a19.023,19.023,0,0,0-4.761-2.4s-1.393-2.591-2.361-1.7a31.844,31.844,0,0,1,.891,4.21,13.933,13.933,0,0,0,.3,3.277c.152.256,2.18,12.177.117,16.432,0,0-3.028,11.474-5.182,13.647s-6.888-12.9-6.888-12.9-2.5-13.446-2.1-15.338S300.829,122.093,300.829,122.093Z" transform="translate(-8.734 -12.967)" fill="#3f3d56"/>
      <circle id="Ellipse_129" data-name="Ellipse 129" cx="1.486" cy="1.486" r="1.486" transform="translate(297.837 150.441)" fill="#3f3d56"/>
      <circle id="Ellipse_130" data-name="Ellipse 130" cx="1.486" cy="1.486" r="1.486" transform="translate(297.837 157.449)" fill="#3f3d56"/>
      <circle id="Ellipse_131" data-name="Ellipse 131" cx="1.486" cy="1.486" r="1.486" transform="translate(297.837 150.441)" opacity="0.1"/>
      <circle id="Ellipse_132" data-name="Ellipse 132" cx="1.486" cy="1.486" r="1.486" transform="translate(297.837 157.449)" opacity="0.1"/>
      <path id="Path_586" data-name="Path 586" d="M321.417,260.49s6.1.473,6.707.946S321.417,260.49,321.417,260.49Z" transform="translate(-8.734 -12.967)" stroke="#6c63ff" stroke-miterlimit="10" stroke-width="0.324" opacity="0.1"/>
      <path id="Path_587" data-name="Path 587" d="M285.09,255.694s1.3,1.619.745,2.364S285.09,255.694,285.09,255.694Z" transform="translate(-8.734 -12.967)" stroke="#6c63ff" stroke-miterlimit="10" stroke-width="0.324" opacity="0.1"/>
      <path id="Path_588" data-name="Path 588" d="M286.644,261.533s2.364-1.555,3.31-.521S286.644,261.533,286.644,261.533Z" transform="translate(-8.734 -12.967)" stroke="#6c63ff" stroke-miterlimit="10" stroke-width="0.324" opacity="0.1"/>
      <path id="Path_589" data-name="Path 589" d="M316.083,110.684a9.442,9.442,0,0,1-.3,2.4,1.078,1.078,0,0,1-.628-1.056c.042-.385.3-.738.243-1.121-.081-.589-.793-.829-1.169-1.3a3.014,3.014,0,0,1-.324-2.112c.039-.729-.146-1.619-.829-1.869-.2-.074-.427-.081-.625-.165-.538-.227-.7-.894-1.062-1.354a2.8,2.8,0,0,0-3.239-.466,15.393,15.393,0,0,1-1.457.609,1.9,1.9,0,0,1-1.525-.113c-.214-.136-.385-.324-.606-.46a2.091,2.091,0,0,0-2.325.567,8.037,8.037,0,0,1-1.943,1.674c-.359.162-.8.259-.972.609a1.276,1.276,0,0,0-.1.606,18.108,18.108,0,0,1-.113,3.773c-.168.793-.725,1.694-1.532,1.6a1.512,1.512,0,0,1-.295-.075,9.489,9.489,0,1,1,18.816-1.755Z" transform="translate(-8.734 -12.967)" opacity="0.1"/>
      <path id="Path_590" data-name="Path 590" d="M296.849,111.9c.243.055.473.181.722.214.806.1,1.363-.8,1.532-1.6a17.465,17.465,0,0,0,.117-3.773,1.234,1.234,0,0,1,.1-.606c.185-.35.628-.447.972-.609a8.387,8.387,0,0,0,1.943-1.674,2.069,2.069,0,0,1,2.322-.567c.217.13.392.324.606.46a1.943,1.943,0,0,0,1.529.113c.5-.149.972-.411,1.454-.609a2.813,2.813,0,0,1,3.239.463c.359.463.525,1.127,1.062,1.354.2.084.421.094.625.168.683.256.858,1.14.829,1.869a3.14,3.14,0,0,0,.324,2.112c.376.46,1.088.7,1.169,1.3.052.382-.2.738-.243,1.121a1.075,1.075,0,0,0,1.014,1.146c.842,0,1.363-.942,2.15-1.244a2.556,2.556,0,0,0,.972-.4,1.072,1.072,0,0,0,.2-.878c-.159-1.24-1.153-2.319-1.046-3.562.1-1.192,1.2-2.231.972-3.4a2.759,2.759,0,0,0-.648-1.156,3.743,3.743,0,0,0-1.321-1.117,13.6,13.6,0,0,1-1.383-.476c-1.224-.67-1.221-2.419-1.943-3.611a3.171,3.171,0,0,0-2.954-1.47c-.91.091-1.736.573-2.636.735a6.834,6.834,0,0,1-3.653-.648,9.991,9.991,0,0,0-3.6-.972,3.074,3.074,0,0,0-2.992,1.833c-.2.648-.1,1.341-.256,1.992a4.348,4.348,0,0,1-2.325,2.552c-.709.4-1.561.849-1.645,1.655a3.412,3.412,0,0,0,.4,1.467,3.734,3.734,0,0,1-.019,2.591c-.236.612-.632,1.15-.871,1.759a3.158,3.158,0,0,0,.084,2.591,2.416,2.416,0,0,0,1.48,1.214C295.767,112.378,296.169,111.746,296.849,111.9Z" transform="translate(-8.734 -12.967)" fill="#3f3d56"/>
      <g id="Group_18" data-name="Group 18" opacity="0.1">
        <path id="Path_591" data-name="Path 591" d="M299.1,109.806c-.168.793-.729,1.694-1.535,1.6-.249-.032-.476-.159-.722-.214-.677-.149-1.078.486-1.716.324a2.422,2.422,0,0,1-1.483-1.214,2.8,2.8,0,0,1-.3-1.059,2.957,2.957,0,0,0,.3,1.668,2.422,2.422,0,0,0,1.483,1.214c.648.149,1.04-.486,1.716-.324a7.32,7.32,0,0,0,.722.211c.806.1,1.367-.8,1.535-1.593a9.361,9.361,0,0,0,.155-2.128,7.979,7.979,0,0,1-.155,1.519Z" transform="translate(-8.734 -12.967)"/>
        <path id="Path_592" data-name="Path 592" d="M294.666,104.929a3.728,3.728,0,0,0-.214-1.564,8.273,8.273,0,0,1-.372-1.023,1.483,1.483,0,0,0-.032.165,3.47,3.47,0,0,0,.4,1.467,3.713,3.713,0,0,1,.214.955Z" transform="translate(-8.734 -12.967)"/>
        <path id="Path_593" data-name="Path 593" d="M319.409,103.222c-.152.92-.9,1.784-.972,2.753a2.313,2.313,0,0,0,0,.5C318.6,105.344,319.6,104.343,319.409,103.222Z" transform="translate(-8.734 -12.967)"/>
        <path id="Path_594" data-name="Path 594" d="M319.464,110.056a.761.761,0,0,1-.185.363c-.24.256-.648.275-.972.4-.787.3-1.3,1.253-2.15,1.244a1.085,1.085,0,0,1-.972-.751,1.68,1.68,0,0,0-.045.214,1.075,1.075,0,0,0,1.014,1.143c.845,0,1.363-.942,2.15-1.24.324-.126.719-.146.972-.4a1.072,1.072,0,0,0,.2-.878C319.474,110.111,319.467,110.085,319.464,110.056Z" transform="translate(-8.734 -12.967)"/>
        <path id="Path_595" data-name="Path 595" d="M315.4,109.787c-.081-.589-.793-.829-1.169-1.3a1.775,1.775,0,0,1-.356-1.062,2.391,2.391,0,0,0,.356,1.671c.372.453.939.648,1.121,1.114A1.039,1.039,0,0,0,315.4,109.787Z" transform="translate(-8.734 -12.967)"/>
        <path id="Path_596" data-name="Path 596" d="M313.9,106.4c.026-.729-.149-1.619-.832-1.869-.2-.074-.424-.084-.622-.165-.538-.227-.706-.894-1.062-1.354a2.806,2.806,0,0,0-3.239-.466c-.486.2-.949.46-1.454.609a1.9,1.9,0,0,1-1.525-.113c-.214-.136-.389-.324-.606-.46a2.089,2.089,0,0,0-2.325.567,8.047,8.047,0,0,1-1.943,1.674c-.363.162-.8.259-.991.609a1.273,1.273,0,0,0-.1.606q0,.189,0,.379a.92.92,0,0,1,.094-.376c.188-.35.628-.447.991-.609a8.388,8.388,0,0,0,1.943-1.674,2.073,2.073,0,0,1,2.325-.567c.217.13.392.324.606.457a1.891,1.891,0,0,0,1.525.113,14.964,14.964,0,0,0,1.454-.606,2.807,2.807,0,0,1,3.239.463c.356.46.525,1.127,1.062,1.354.2.084.421.094.622.168a1.554,1.554,0,0,1,.823,1.444Z" transform="translate(-8.734 -12.967)"/>
      </g>
      <g id="Group_19" data-name="Group 19" opacity="0.1">
        <path id="Path_597" data-name="Path 597" d="M297.947,109.787a2.484,2.484,0,0,1,1.872-2.322,7.773,7.773,0,0,1,4.366.2c3.073,1.017-.389,4.676-.389,4.676s-2.3,2.267-4.45.683a3.365,3.365,0,0,1-1.253-1.943A4.955,4.955,0,0,1,297.947,109.787Z" transform="translate(-8.734 -12.967)"/>
        <path id="Path_598" data-name="Path 598" d="M314.842,109.787a2.484,2.484,0,0,0-1.875-2.322,7.773,7.773,0,0,0-4.362.2c-3.073,1.017.389,4.676.389,4.676s2.3,2.267,4.45.683a3.365,3.365,0,0,0,1.253-1.943,4.956,4.956,0,0,0,.146-1.292Z" transform="translate(-8.734 -12.967)"/>
        <path id="Path_599" data-name="Path 599" d="M294.87,94.4v.152h5.612v-.181Z"/>
        <path id="Path_600" data-name="Path 600" d="M305.4,108.987h.178v-.515a1.474,1.474,0,0,1,1.516,0v.46h.324v-.3h-.159s.065-.625-.991-.525c0,0-.849-.081-.829.457h-.194Z" transform="translate(-8.734 -12.967)"/>
      </g>
      <path id="Path_601" data-name="Path 601" d="M297.947,109.576a2.484,2.484,0,0,1,1.872-2.322,7.814,7.814,0,0,1,4.366.2c3.073,1.02-.389,4.676-.389,4.676s-2.3,2.267-4.45.683a3.345,3.345,0,0,1-1.253-1.943,4.926,4.926,0,0,1-.146-1.292Z" transform="translate(-8.734 -12.967)" fill="#e02525"/>
      <path id="Path_602" data-name="Path 602" d="M314.842,109.576a2.484,2.484,0,0,0-1.875-2.322,7.8,7.8,0,0,0-4.362.2c-3.073,1.02.389,4.676.389,4.676s2.3,2.267,4.45.683a3.346,3.346,0,0,0,1.253-1.943A4.925,4.925,0,0,0,314.842,109.576Z" transform="translate(-8.734 -12.967)" fill="#e02525"/>
      <path id="Path_603" data-name="Path 603" d="M294.87,94.193v.155h5.612v-.185Z" fill="#6c63ff"/>
      <path id="Path_604" data-name="Path 604" d="M305.4,108.783h.178v-.515a1.483,1.483,0,0,1,1.516,0v.463h.324v-.3h-.159s.065-.622-.991-.525c0,0-.849-.078-.829.457h-.194Z" transform="translate(-8.734 -12.967)" fill="#6c63ff"/>
    </g>
    <g id="undraw_Vehicle_sale_a645" transform="translate(1259 2153.008)" opacity="0.59">
      <g id="Group_20" data-name="Group 20" transform="translate(30.212 0.992)" opacity="0.8">
        <path id="Path_605" data-name="Path 605" d="M447.792,188.611c2.046,2.869,3.616,11.225,4.053,13.743l3.657-.075c-.189-2.163-4.444-10.962-5.626-13.376C449.218,188.8,448.515,188.7,447.792,188.611Z" transform="translate(-389.298 -180.943)" fill="#65617d"/>
        <rect id="Rectangle_132" data-name="Rectangle 132" width="2.282" height="1.62" transform="translate(12.807 8.083) rotate(-88.918)" fill="#dce0ed"/>
        <path id="Path_606" data-name="Path 606" d="M237.081,180l-.014.743a1.237,1.237,0,0,0,.351.054l1.268.013.015-.78Z" transform="translate(-224.23 -174.194)" opacity="0.1"/>
        <path id="Path_607" data-name="Path 607" d="M234.7,153.259l-1.529-.029a1.836,1.836,0,0,0-1.722,1.113,5.194,5.194,0,0,0,.082,4.608,1.264,1.264,0,0,0,1.1.659l1.952.02Z" transform="translate(-219.434 -153.228)" fill="#dce0ed"/>
        <ellipse id="Ellipse_134" data-name="Ellipse 134" cx="3.186" cy="1.638" rx="3.186" ry="1.638" transform="translate(13.506 6.371) rotate(-88.918)" fill="#f0f0f4"/>
        <rect id="Rectangle_133" data-name="Rectangle 133" width="1.998" height="1.62" transform="translate(27.202 8.098) rotate(-88.918)" fill="#dce0ed"/>
        <path id="Path_608" data-name="Path 608" d="M303.5,181.374l-.012.635a1.237,1.237,0,0,0,.351.054l1.268.013.013-.672Z" transform="translate(-276.26 -175.274)" opacity="0.1"/>
        <path id="Path_609" data-name="Path 609" d="M301.11,154.637l-1.529-.029a1.836,1.836,0,0,0-1.722,1.113,5.194,5.194,0,0,0,.082,4.608,1.264,1.264,0,0,0,1.1.659l1.952.02Z" transform="translate(-271.456 -154.308)" fill="#dce0ed"/>
        <ellipse id="Ellipse_135" data-name="Ellipse 135" cx="3.186" cy="1.638" rx="3.186" ry="1.638" transform="translate(27.895 6.67) rotate(-88.918)" fill="#f0f0f4"/>
        <path id="Path_610" data-name="Path 610" d="M310.235,160.082s.6.108.273.9a5.51,5.51,0,0,0-.385,1.2s-.61.3-.566-.736A1.552,1.552,0,0,1,310.235,160.082Z" transform="translate(-281.011 -158.596)" fill="#dce0ed"/>
        <ellipse id="Ellipse_136" data-name="Ellipse 136" cx="10.477" cy="9.559" rx="10.477" ry="9.559" transform="translate(79.996 58.465) rotate(-88.918)" fill="#636780"/>
        <path id="Path_611" data-name="Path 611" d="M553.322,329.9c5,.431,8.871,5.057,8.766,10.624a10.489,10.489,0,0,1-6.377,9.69c-5-.431-8.871-5.057-8.766-10.624A10.489,10.489,0,0,1,553.322,329.9Z" transform="translate(-466.965 -291.619)" opacity="0.1"/>
        <ellipse id="Ellipse_137" data-name="Ellipse 137" cx="10.117" cy="7.759" rx="10.117" ry="7.759" transform="translate(7.433 33.832) rotate(-88.918)" fill="#636780"/>
        <path id="Path_612" data-name="Path 612" d="M236.415,218.816c3.194,1.294,5.47,5.216,5.383,9.811-.093,4.91-2.853,8.951-6.428,9.8-3.194-1.294-5.47-5.216-5.383-9.811C230.079,223.71,232.839,219.669,236.415,218.816Z" transform="translate(-218.682 -204.604)" opacity="0.1"/>
        <path id="Path_613" data-name="Path 613" d="M383.221,235.812l-.075-3.674s.75-1.57,1.473-1.7,2.38-.189,2.38-.189,1.2,5.3.3,6.866S383.221,235.812,383.221,235.812Z" transform="translate(-338.659 -213.559)" fill="#65617d"/>
        <path id="Path_614" data-name="Path 614" d="M383.221,235.812l-.075-3.674s.75-1.57,1.473-1.7,2.38-.189,2.38-.189,1.2,5.3.3,6.866S383.221,235.812,383.221,235.812Z" transform="translate(-338.659 -213.559)" opacity="0.1"/>
        <path id="Path_615" data-name="Path 615" d="M408.726,235.011s.542-5.083-2.254-5.227c-.36-.019-.72-.034-1.078-.076-1.936-.224-7.217-.732-6.606.488,0,0,1.176,4.451.291,5.551Z" transform="translate(-350.873 -212.902)" fill="#65617d"/>
        <path id="Path_616" data-name="Path 616" d="M244.32,253.028l-3.755.037s-.517-6.924-.723-7.468-.265-3.138.444-3.5a18.064,18.064,0,0,1,3.067-.779l1.653,3.974.068,3.566Z" transform="translate(-226.296 -222.228)" fill="#65617d"/>
        <path id="Path_617" data-name="Path 617" d="M244.32,253.028l-3.755.037s-.517-6.924-.723-7.468-.265-3.138.444-3.5a18.064,18.064,0,0,1,3.067-.779l1.653,3.974.068,3.566Z" transform="translate(-226.296 -222.228)" opacity="0.1"/>
        <path id="Path_618" data-name="Path 618" d="M265.493,238.754l.031-.769a.444.444,0,0,0-.454-.462c-1.862.043-8.636.24-9.832.822,0,0,1.114,9.663-.36,11.931l.34,7.731,16.6-.929Z" transform="translate(-238.182 -219.257)" fill="#65617d"/>
        <path id="Path_619" data-name="Path 619" d="M305,186.516c-.459-.054-1.006-.114-1.617-.173l-.017.921,1.62.031Z" transform="translate(-276.167 -179.167)" opacity="0.1"/>
        <path id="Path_620" data-name="Path 620" d="M236.935,187.987l0,.117,1.62.031.013-.7A6.921,6.921,0,0,0,236.935,187.987Z" transform="translate(-224.125 -180.021)" opacity="0.1"/>
        <path id="Path_621" data-name="Path 621" d="M154.434,89.883l2.447.082,5.232-9.1.873-1.519-.575-3.9-.515.932Z" transform="translate(-150.185 -59.101)" fill="#dce0ed"/>
        <path id="Path_622" data-name="Path 622" d="M257.6,72.1l.979,1.531,3.09-4.017,1.414-1.84-.807-1.131-.648.757Z" transform="translate(-230.995 -52.2)" fill="#dce0ed"/>
        <path id="Path_623" data-name="Path 623" d="M319.118,220.626c-.006.078-.012.158-.019.238l.06,1.976,1.414-1.84-.807-1.131Z" transform="translate(-288.489 -205.428)" opacity="0.1"/>
        <path id="Path_624" data-name="Path 624" d="M188.878,76.382l.217,4.486.873-1.519-.575-3.9Z" transform="translate(-177.166 -59.101)" opacity="0.1"/>
        <path id="Path_625" data-name="Path 625" d="M253.063,196.361s1.379-9.006-3-10.439a.993.993,0,0,0-.172-.039c-1.01-.141-10.43-1.408-15.356-.207,0,0-3.357.441-3.355,2.241l1.061,22.022,2.412.046-.517-14.558s-1.032-6.357.884-6.753,10.605-.952,13.649-.03c0,0,2.241-.462,1.777,5.039l.088,2.955Z" transform="translate(-219.622 -178.243)" fill="#dce0ed"/>
        <path id="Path_626" data-name="Path 626" d="M298.026,238.461a1.392,1.392,0,0,1,.59-1.231c.685-.5,2.784-1.568,2.784-1.568l.674.067,1.93,5.06-.336,10.662-3.73,4.44Z" transform="translate(-271.979 -217.8)" fill="#65617d"/>
        <path id="Path_627" data-name="Path 627" d="M298.026,238.461a1.392,1.392,0,0,1,.59-1.231c.685-.5,2.784-1.568,2.784-1.568l.674.067,1.93,5.06-.336,10.662-3.73,4.44Z" transform="translate(-271.979 -217.8)" opacity="0.1"/>
        <path id="Path_628" data-name="Path 628" d="M324.368,246.093l.135-10.945s.4-4.242-2.132-4.362c0,0-5.986-.069-8.6.726a.581.581,0,0,0-.343.833c.5.911,1.329,3.313,1.634,9.44l-.124,6.561Z" transform="translate(-283.989 -213.98)" fill="#65617d"/>
        <path id="Path_629" data-name="Path 629" d="M262.3,153.213l10.895-.048h.011l5.354-.023-.486-7.166-2.972.052-9.489,1.927-2.974,4.481Z" transform="translate(-234.679 -114.346)" fill="#65617d"/>
        <path id="Path_630" data-name="Path 630" d="M262.3,153.213l10.895-.048h.011l5.354-.023-.486-7.166-2.972.052-9.489,1.927-2.974,4.481Z" transform="translate(-234.679 -114.346)" opacity="0.1"/>
        <path id="Path_631" data-name="Path 631" d="M262.3,160.369l10.895-.048.27-4.791-7.851-.418-2.974,4.481Z" transform="translate(-234.679 -121.502)" fill="#65617d"/>
        <path id="Path_632" data-name="Path 632" d="M355.633,306.395l5.354-.023-.486-7.166s-1.724,2.641-4.61,2.4Z" transform="translate(-317.106 -267.575)" fill="#fff" opacity="0.1"/>
        <path id="Path_633" data-name="Path 633" d="M177.826,349.694c.177,2.056,1.641,1.759,1.641,1.759l.273-.02,2.7-.194-.048-3.188a11.723,11.723,0,0,0-2.74.112C178.639,348.354,177.748,348.78,177.826,349.694Z" transform="translate(-177.822 -305.811)" fill="#dce0ed"/>
        <path id="Path_634" data-name="Path 634" d="M177.826,350.223c.177,2.056,1.641,1.76,1.641,1.76l.273-.02a2.757,2.757,0,0,0,.459-1.533,2.593,2.593,0,0,0-.544-1.737C178.639,348.884,177.748,349.31,177.826,350.223Z" transform="translate(-177.822 -306.341)" opacity="0.1"/>
        <path id="Path_635" data-name="Path 635" d="M351.613,241.226c-.063,3.33,1.885,6.067,4.35,6.114s4.515-2.615,4.578-5.945-1.885-6.067-4.35-6.114S351.676,237.9,351.613,241.226Zm1.684.428c.046-2.416,1.606-4.345,3.484-4.309s3.365,2.022,3.319,4.438-1.606,4.345-3.484,4.309S353.252,244.07,353.3,241.654Z" transform="translate(-313.956 -217.501)" fill="#636780"/>
        <path id="Path_636" data-name="Path 636" d="M317.765,112.836l-2.127,2.012-.721-1.85,3.057-1.707Z" transform="translate(-275.896 -87.177)" fill="#636780"/>
        <path id="Path_637" data-name="Path 637" d="M306.546,24.424l-1.822.187-.689.788.936,4.62L307,37.472l1.329,5.116.944,3.109.562,4.1.586,2.823,1.881,1.953,3.985-4.527.668-1.521,1.593-3.1L314.623,43.5l-4.338-.465-1.946-5.278-1.547-6.1Z" transform="translate(-267.372 -19.13)" fill="#6c63ff"/>
        <path id="Path_638" data-name="Path 638" d="M369.186,119.345l2,19.988-29.89-1.825,3.641-9.726,5.83-3.635-13.179-.033.031-5.473,5.349-1.051,10.744-.661,8.07-.208,7.656,2.665" transform="translate(-293.654 -91.429)" fill="#65617d"/>
        <path id="Path_639" data-name="Path 639" d="M369.186,119.345l2,19.988-29.89-1.825,3.641-9.726,5.83-3.635-13.179-.033.031-5.473,5.349-1.051,10.744-.661,8.07-.208,7.656,2.665" transform="translate(-293.654 -91.429)" opacity="0.1"/>
        <path id="Path_640" data-name="Path 640" d="M336.059,339.4c-.094,4.956,1.468,9.5,6.046,9.09,5.765-.015,6.291-3.9,6.385-8.856s-2.619-8.7-6.052-8.761S336.153,334.446,336.059,339.4Z" transform="translate(-301.771 -292.382)" fill="#636780"/>
        <path id="Path_641" data-name="Path 641" d="M335.892,341.23c.072-3.837,1.8-6.882,4.167-8.031,3,.63,5.253,4.139,5.168,8.66-.077,4.061-.445,7.4-3.748,8.485C337.256,350.417,335.8,346.017,335.892,341.23Z" transform="translate(-301.64 -294.204)" opacity="0.1"/>
        <path id="Path_642" data-name="Path 642" d="M175.483,149.458,177.2,151.5l-3.153-.6-2.323-2.217-2.029-4.257-2.937-1.877-7.3.853-6.746.128-2.447-2.257,2.783-.325,2.813-.011,7.064-.026,8.407-.065,1.638,4.633,1.25,3.187Z" transform="translate(-146.919 -110.327)" fill="#6c63ff"/>
        <path id="Path_643" data-name="Path 643" d="M193.311,219.915a44.162,44.162,0,0,0,4.842,1.028l12.986,2.622,22.385.747,2.67-2.183,1.376.271.056.011L256,226.032l.3-.038,5.038-.621,26.315-3.245-.222-3.816-.131-2.252-.271-4.675-.23-1.229-2.333-.258-1.09-.121-17-1.884-2.223-.246-1.246-.138-12.136-1.885-17.755.1.031-5.473-6.612-21.731c-1.552.222-1.536,1.267-1.536,1.267l5.591,20.451-.164,12.493c-12.452,1.02-12.8-1.695-14.785-.819l-2.232-7.64-20.88-.286C191.576,204.974,193.311,219.915,193.311,219.915Z" transform="translate(-189.077 -173.035)" fill="#65617d"/>
        <path id="Path_644" data-name="Path 644" d="M359.6,168.536,352.7,182.63l-2.246.677-.5-2.314,2.633-7.837,2.642-4.523Z" transform="translate(-303.348 -132.018)" fill="#65617d"/>
        <path id="Path_645" data-name="Path 645" d="M359.6,168.536,352.7,182.63l-2.246.677-.5-2.314,2.633-7.837,2.642-4.523Z" transform="translate(-303.348 -132.018)" opacity="0.15"/>
        <ellipse id="Ellipse_138" data-name="Ellipse 138" cx="13.61" cy="11.998" rx="13.61" ry="11.998" transform="translate(48.01 65.639) rotate(-88.918)" fill="#636780"/>
        <path id="Path_646" data-name="Path 646" d="M408.344,335.156c6.269.556,11.13,6.562,10.994,13.793-.11,5.828-3.435,10.739-8.012,12.592-6.269-.556-11.13-6.562-10.993-13.793C400.442,341.919,403.767,337.009,408.344,335.156Z" transform="translate(-352.119 -295.736)" opacity="0.1"/>
        <path id="Path_647" data-name="Path 647" d="M606.436,287.4l.541,2.81,1.656,8.61,7.826-.608s.495-1.431-.719-1.994c0,0-.31-4.881-1.725-6.443a1.469,1.469,0,0,0-.559-.406Z" transform="translate(-513.568 -258.326)" fill="#65617d"/>
        <path id="Path_648" data-name="Path 648" d="M608.933,298.8l1.656,8.61,7.826-.608s.495-1.431-.719-1.994c0,0-.31-4.881-1.724-6.443Z" transform="translate(-515.524 -266.913)" fill="#fff" opacity="0.1"/>
        <path id="Path_649" data-name="Path 649" d="M412.018,265.9c-1.04,1.672,1.113,17.306,1.113,17.306l19.247-2.806-.426-13.656c-.35-2.456-1.784-2.77-1.784-2.77-6.7-3.548-22.241-4.562-22.241-4.562a113.836,113.836,0,0,0-27.2,4.2C396.905,261.434,412.018,265.9,412.018,265.9Z" transform="translate(-336.767 -236.402)" fill="#65617d"/>
        <path id="Path_650" data-name="Path 650" d="M525.215,298.39l19.247-2.806-.426-13.656c-.35-2.456-1.784-2.77-1.784-2.77s-13.978-1.6-18.15,1.926C523.062,282.756,525.215,298.39,525.215,298.39Z" transform="translate(-448.851 -251.589)" opacity="0.1"/>
        <path id="Path_651" data-name="Path 651" d="M535.5,304.8l16.094-2.4-.352-11.651c-.292-2.1-1.491-2.363-1.491-2.363s-11.687-1.358-15.176,1.649C533.7,291.462,535.5,304.8,535.5,304.8Z" transform="translate(-457.091 -258.86)" fill="#65617d"/>
        <ellipse id="Ellipse_139" data-name="Ellipse 139" cx="3.996" cy="2.196" rx="3.996" ry="2.196" transform="translate(77.638 40.343) rotate(-88.918)" opacity="0.1"/>
        <ellipse id="Ellipse_140" data-name="Ellipse 140" cx="3.996" cy="2.196" rx="3.996" ry="2.196" transform="translate(77.64 40.235) rotate(-88.918)" fill="#dce0ed"/>
        <path id="Path_652" data-name="Path 652" d="M541.9,307.022s.9.161.407,1.34a8.207,8.207,0,0,0-.574,1.79s-.909.451-.844-1.1A2.312,2.312,0,0,1,541.9,307.022Z" transform="translate(-462.223 -273.698)" fill="#f0f0f4"/>
        <ellipse id="Ellipse_141" data-name="Ellipse 141" cx="3.734" cy="2.052" rx="3.734" ry="2.052" transform="translate(89.588 38.722) rotate(-88.918)" opacity="0.1"/>
        <ellipse id="Ellipse_142" data-name="Ellipse 142" cx="3.734" cy="2.052" rx="3.734" ry="2.052" transform="translate(89.59 38.614) rotate(-88.918)" fill="#dce0ed"/>
        <path id="Path_653" data-name="Path 653" d="M596.368,300.738s.9.161.407,1.34a8.21,8.21,0,0,0-.574,1.79s-.909.451-.844-1.1A2.312,2.312,0,0,1,596.368,300.738Z" transform="translate(-504.888 -268.776)" fill="#f0f0f4"/>
        <path id="Path_654" data-name="Path 654" d="M558.551,300.212c.116,1.479.629,12.435.629,12.435l1.225-.181.681-.1.908-.134.109-.016,3.576-.527-.485-11.621a1.455,1.455,0,0,0-1.444-1.394c-.036,0-.072,0-.109,0-.247.017-.513.038-.79.063-.117.011-.235.021-.355.034-.343.035-.7.078-1.045.128-.178.027-.352.055-.525.085-.292.053-.574.111-.834.179-.177.045-.345.1-.5.149C558.947,299.537,558.521,299.83,558.551,300.212Z" transform="translate(-476.058 -267.159)" opacity="0.1"/>
        <path id="Path_655" data-name="Path 655" d="M582.559,298.674l.451,13.06.4-.028-.446-12.972a1.461,1.461,0,0,0-.4-.059Z" transform="translate(-494.865 -267.159)" fill="#65617d"/>
        <path id="Path_656" data-name="Path 656" d="M576.772,299.014l.4,13.186.612.012-.662-13.232C577.01,298.99,576.892,299,576.772,299.014Z" transform="translate(-490.331 -267.398)" fill="#65617d"/>
        <path id="Path_657" data-name="Path 657" d="M569.528,299.815l.781,13.239.4.007v-.018l-.652-13.313C569.875,299.757,569.7,299.785,569.528,299.815Z" transform="translate(-484.657 -267.986)" fill="#65617d"/>
        <path id="Path_658" data-name="Path 658" d="M563.372,301.1l.811,13.15,0,.025.685-.059-.005-.065-.993-13.2C563.695,300.993,563.526,301.043,563.372,301.1Z" transform="translate(-479.835 -268.94)" fill="#65617d"/>
        <path id="Path_659" data-name="Path 659" d="M578.391,323.319s1.452-6.806-1.565-7.214-12.966.133-12.722,2.947.487,7.085.487,7.085l2.06-.42s-1.418-6.455.99-6.652,8.306-.761,8.306-.761,1.6-.24.573,5.385Z" transform="translate(-480.405 -280.719)" opacity="0.1"/>
        <path id="Path_660" data-name="Path 660" d="M578.365,324.748s1.46-7.238-1.557-7.646-12.966.133-12.722,2.947.487,7.085.487,7.085l2.061-.42s-1.418-6.455.99-6.652,8.306-.761,8.306-.761,1.59.192.565,5.817Z" transform="translate(-480.39 -281.5)" fill="#dce0ed"/>
        <path id="Path_661" data-name="Path 661" d="M382.957,321.467l2.664.014a51.439,51.439,0,0,1,5.41-13.8c1.091-.556,12.9-.261,12.9-.261,1.221.239,1.471,4.133,1.471,4.133s-1.061.88-.065,1.476a9.983,9.983,0,0,0,3.635.287,28.736,28.736,0,0,0,5.88-.72c2.318-.677.507-2.043.507-2.043s-.316-.438-.487-2.818a9.606,9.606,0,0,0-1.24-3.946c-.1-.167-.157-.258-.157-.258a1.245,1.245,0,0,0-.416-.271c-3.028-1.332-18.009-.4-18.009-.4l-5.577,1.66c-.154.059-.4.445-.7,1.064C386.946,309.309,382.957,321.467,382.957,321.467Z" transform="translate(-338.51 -270.191)" fill="#65617d"/>
        <path id="Path_662" data-name="Path 662" d="M382.957,321.467l2.664.014a51.439,51.439,0,0,1,5.41-13.8c1.091-.556,12.9-.261,12.9-.261,1.221.239,1.471,4.133,1.471,4.133s-1.061.88-.065,1.476a9.983,9.983,0,0,0,3.635.287,28.736,28.736,0,0,0,5.88-.72c2.318-.677.507-2.043.507-2.043s-.316-.438-.487-2.818a9.606,9.606,0,0,0-1.24-3.946c-.1-.167-.157-.258-.157-.258a1.245,1.245,0,0,0-.416-.271c-3.028-1.332-18.009-.4-18.009-.4l-5.577,1.66c-.154.059-.4.445-.7,1.064C386.946,309.309,382.957,321.467,382.957,321.467Z" transform="translate(-338.51 -270.191)" opacity="0.1"/>
        <path id="Path_663" data-name="Path 663" d="M409.78,305.585c5.155-1.891,19.238-.57,19.238-.57,1.522-1.252,4.341-1.284,5.622-1.224-.1-.167-.157-.258-.157-.258a1.246,1.246,0,0,0-.416-.271c-3.028-1.332-18.009-.4-18.009-.4l-5.577,1.66C410.327,304.58,410.083,304.966,409.78,305.585Z" transform="translate(-359.522 -270.191)" fill="#65617d"/>
        <path id="Path_664" data-name="Path 664" d="M494.667,308.132c.3,1.122,1.55,5.611,1.55,5.611a18.959,18.959,0,0,1,.251,2.168,28.738,28.738,0,0,0,5.88-.72c2.318-.677.507-2.043.507-2.043s-.316-.438-.487-2.818a9.565,9.565,0,0,0-1.4-4.2,1.246,1.246,0,0,0-.416-.271C498.545,306.289,494.438,307.283,494.667,308.132Z" transform="translate(-426.009 -272.784)" fill="#65617d"/>
        <path id="Path_665" data-name="Path 665" d="M494.667,308.132c.3,1.122,1.55,5.611,1.55,5.611a18.959,18.959,0,0,1,.251,2.168,28.738,28.738,0,0,0,5.88-.72c2.318-.677.507-2.043.507-2.043s-.316-.438-.487-2.818a9.565,9.565,0,0,0-1.4-4.2,1.246,1.246,0,0,0-.416-.271C498.545,306.289,494.438,307.283,494.667,308.132Z" transform="translate(-426.009 -272.784)" fill="#fff" opacity="0.1"/>
        <path id="Path_666" data-name="Path 666" d="M350.217,175.078l6.612,21.731,27.569-3.99-3.642-13.06s-.565-2.982-1.992-3.225C378.764,176.535,356.725,172.284,350.217,175.078Zm3.069,3.407c-.89-2.934,12.208-1.471,12.208-1.471a31.405,31.405,0,0,1,5.865.251c.723.088,1.426.189,2.084.292,1.468.231,2.714.477,3.46.633.475.1.747.161.747.161,2.6.859,3.884,11.687,3.884,11.687.195,1.138-1.151.87-1.151.87l-.088,0-1.227.024-3.657.075-17.832.36c-1.051-.128-1.189-1.373-1.189-1.373C355.84,189.093,353.286,178.484,353.286,178.484Z" transform="translate(-312.864 -169.597)" fill="#65617d"/>
        <path id="Path_667" data-name="Path 667" d="M476.772,205.6l.088,0s1.345.268,1.151-.87c0,0-1.281-10.827-3.884-11.687,0,0-.272-.062-.747-.161C474.3,194.752,477.227,201.162,476.772,205.6Z" transform="translate(-409.341 -184.286)" fill="#65617d"/>
        <path id="Path_668" data-name="Path 668" d="M476.772,205.6l.088,0s1.345.268,1.151-.87c0,0-1.281-10.827-3.884-11.687,0,0-.272-.062-.747-.161C474.3,194.752,477.227,201.162,476.772,205.6Z" transform="translate(-409.341 -184.286)" opacity="0.1"/>
        <path id="Path_669" data-name="Path 669" d="M474.966,356.675a1.738,1.738,0,0,0,1.61.943l.55-.013,5.194-.126,1.872-.046,1.731-.111,22.887-3.271-.131-2.252-2.631.326-1.088.135-16.153,2-2.126.263-1.031.127-4.356-.114-4.715-.124a1.782,1.782,0,0,0-.7.121,1.7,1.7,0,0,0-.93.851A1.423,1.423,0,0,0,474.966,356.675Z" transform="translate(-410.457 -308.774)" opacity="0.1"/>
        <path id="Path_670" data-name="Path 670" d="M474.947,347.907a1.738,1.738,0,0,0,1.61.943l7.616-.185,1.731-.111,24.406-3.489,1.918-.274,1.045-.15a1.893,1.893,0,0,0,1.486-2.457c-.126-.939-3.638-1.87-4.79-1.855-.775.009-.905,1.2-.907,1.981,0,.382.028.666.028.666l-1.141.142-22.321,2.764-9.071-.237a1.743,1.743,0,0,0-1.628.972A1.423,1.423,0,0,0,474.947,347.907Z" transform="translate(-410.442 -299.79)" fill="#dce0ed"/>
        <path id="Path_671" data-name="Path 671" d="M635.636,346.456a4.177,4.177,0,0,1-2.51,1.321A2.721,2.721,0,0,1,635.636,346.456Z" transform="translate(-534.476 -304.588)" opacity="0.1"/>
        <path id="Path_672" data-name="Path 672" d="M512.039,361.929s3.205-.011,3.173,1.716-2.054,1.978-2.054,1.978l-28.722,4.967-8.138-.01s-2.8-2.322.17-3.274l8.2.371,27.381-4.488S511.349,362.2,512.039,361.929Z" transform="translate(-410.69 -316.708)" opacity="0.1"/>
        <path id="Path_673" data-name="Path 673" d="M476.279,371.578l8.138.01,25.539-4.417,1.869-.323,1.315-.227s2.022-.25,2.054-1.978c.023-1.24-1.622-1.584-2.552-1.679-.365-.037-.62-.037-.62-.037-.689.274.013,1.26.013,1.26l-1,.164-26.384,4.325-8.2-.371C473.478,369.257,476.279,371.578,476.279,371.578Z" transform="translate(-410.675 -317.49)" fill="#dce0ed"/>
        <path id="Path_674" data-name="Path 674" d="M625.149,352.2l-1.678-.788-.863-.052-.065,7.273,2.674-.49,1.13-.7.6-3.014a8.19,8.19,0,0,0-.3-1.374C626.54,352.948,625.149,352.2,625.149,352.2Z" transform="translate(-526.186 -308.43)" fill="#dce0ed"/>
        <path id="Path_675" data-name="Path 675" d="M625.149,352.2l-1.678-.788-.863-.052-.065,7.273,2.674-.49,1.13-.7.6-3.014a8.19,8.19,0,0,0-.3-1.374C626.54,352.948,625.149,352.2,625.149,352.2Z" transform="translate(-526.186 -308.43)" opacity="0.1"/>
        <path id="Path_676" data-name="Path 676" d="M635.915,367.171l-.032.037,1.878-.325c.008-.012.016-.023.022-.035a4.561,4.561,0,0,0,.817-3.885c-.366-.037-.62-.037-.62-.037-.689.274.013,1.26.013,1.26l-1,.164A4.555,4.555,0,0,1,635.915,367.171Z" transform="translate(-536.635 -317.49)" opacity="0.1"/>
        <path id="Path_677" data-name="Path 677" d="M623.84,349.588q.471.192.871.4a5.73,5.73,0,0,1,2.359,1.946l1.918-.274a5.833,5.833,0,0,0-2.763-2.563l-.4.083Z" transform="translate(-527.202 -306.654)" opacity="0.1"/>
        <path id="Path_678" data-name="Path 678" d="M625.231,349.076s5.216,2.187,2.1,6.954l-1.879.325s3.788-4.178-2.609-6.783Z" transform="translate(-526.422 -306.64)" fill="#dce0ed"/>
        <path id="Path_679" data-name="Path 679" d="M525.813,205.161l-1.942-.109.176,7.818,3.143-.517,1.344-.623.641-1.536.461-1.54-1.017-1.424-1.173-.814Z" transform="translate(-439.576 -160.622)" fill="#dce0ed"/>
        <path id="Path_680" data-name="Path 680" d="M525.813,205.161l-1.942-.109.176,7.818,3.143-.517,1.344-.623.641-1.536.461-1.54-1.017-1.424-1.173-.814Z" transform="translate(-439.576 -160.622)" opacity="0.1"/>
        <ellipse id="Ellipse_143" data-name="Ellipse 143" cx="1.584" cy="0.936" rx="1.584" ry="0.936" transform="translate(85.411 50.141) rotate(-88.918)" fill="#dce0ed"/>
        <path id="Path_681" data-name="Path 681" d="M610.977,383.17a.508.508,0,0,1,.241.714,3.566,3.566,0,0,0-.462,1.038c.036.23-.473.032-.54-.024s-1-.019-1.041-.654a1.1,1.1,0,0,1,.518-.962l-.19-1.395,1.284-.084-.037,1.269Z" transform="translate(-515.714 -332.277)" fill="#636780"/>
        <path id="Path_682" data-name="Path 682" d="M610.977,383.17a.508.508,0,0,1,.241.714,3.566,3.566,0,0,0-.462,1.038c.036.23-.473.032-.54-.024s-1-.019-1.041-.654a1.1,1.1,0,0,1,.518-.962l-.19-1.395,1.284-.084-.037,1.269Z" transform="translate(-515.714 -332.277)" opacity="0.1"/>
        <path id="Path_683" data-name="Path 683" d="M614.733,387.96s-.46,1.477-.272,1.534S614.733,387.96,614.733,387.96Z" transform="translate(-519.819 -337.099)" opacity="0.1"/>
        <path id="Path_684" data-name="Path 684" d="M612.521,386.3s-.46,1.477-.272,1.534S612.521,386.3,612.521,386.3Z" transform="translate(-518.086 -335.797)" opacity="0.1"/>
        <path id="Path_685" data-name="Path 685" d="M590.173,361.239l.636,4.478s.893-.105,1.387-.2a.989.989,0,0,0,.312-.09c.025-.024.078-.021.148-.006h0c.239.053.663.26.749.094a.151.151,0,0,1,.024-.035h0c.086-.09.249-.02.407.007a.345.345,0,0,0,.252-.029c.134-.086.4.062.62.113.139.033.259.029.316-.1a.292.292,0,0,1,.218-.149h0c.208-.048.5-.007.666-.039.066-.012.112-.036.128-.081.034-.1.221-.139.42-.174.242-.042.5-.07.523-.168.006-.032.03-.046.066-.046a2.17,2.17,0,0,1,.392.1h0c.108.029.2.032.224-.045s.154-.073.295-.035c.114.03.239.077.336.1s.15.026.161-.015c.038-.143.5.19.613-.1a3.846,3.846,0,0,0-.236-4.685s-.517.026-.912.09a1.425,1.425,0,0,0-.382.1l-.005,0a2.216,2.216,0,0,1-.695.067.906.906,0,0,0-.388.085.254.254,0,0,0-.11.113c-.063.136-.2.161-.353.15-.2-.016-.429-.1-.513-.058l-.008,0c-.152.062-.716-.011-.814.081l-.008.008c-.042.06-.262-.008-.488-.043h0a.55.55,0,0,0-.448.062.489.489,0,0,1-.353.1,2.024,2.024,0,0,0-.458.01.182.182,0,0,0-.092.055c-.094.112-.313.092-.509.1a.517.517,0,0,0-.288.067.257.257,0,0,1-.1.041,3.091,3.091,0,0,1-.867-.06Z" transform="translate(-500.829 -315.31)" fill="#636780"/>
        <path id="Path_686" data-name="Path 686" d="M624.6,365.163c.114.03.239.077.336.1a3.554,3.554,0,0,0-.374-4.707,1.424,1.424,0,0,0-.382.1A4.361,4.361,0,0,1,624.6,365.163Z" transform="translate(-527.469 -315.634)" opacity="0.1"/>
        <path id="Path_687" data-name="Path 687" d="M619.753,365.749a2.173,2.173,0,0,1,.392.1h0a3.557,3.557,0,0,0-.6-4.518.906.906,0,0,0-.388.085A4.225,4.225,0,0,1,619.753,365.749Z" transform="translate(-523.533 -316.243)" opacity="0.1"/>
        <path id="Path_688" data-name="Path 688" d="M615.059,367.227c.066-.012.112-.036.128-.081.034-.1.221-.139.42-.174a3.506,3.506,0,0,0-.47-4.28c-.2-.016-.429-.1-.513-.058l-.008,0A4.366,4.366,0,0,1,615.059,367.227Z" transform="translate(-519.977 -317.252)" opacity="0.1"/>
        <path id="Path_689" data-name="Path 689" d="M609.125,367.729c.139.033.259.029.316-.1a.292.292,0,0,1,.218-.149h0a3.556,3.556,0,0,0-.59-4.548l-.008.008c-.042.06-.262-.008-.487-.043A4.352,4.352,0,0,1,609.125,367.729Z" transform="translate(-515.244 -317.47)" opacity="0.1"/>
        <path id="Path_690" data-name="Path 690" d="M603.288,368.181c.086-.09.249-.02.407.007a3.547,3.547,0,0,0-.481-4.584,2.026,2.026,0,0,0-.458.01A4.309,4.309,0,0,1,603.288,368.181Z" transform="translate(-510.686 -318.013)" opacity="0.1"/>
        <path id="Path_691" data-name="Path 691" d="M598.465,368.838a.987.987,0,0,0,.312-.09c.025-.024.078-.021.148-.006h0a3.5,3.5,0,0,0-.357-4.356.517.517,0,0,0-.287.067.257.257,0,0,1-.1.041A4.419,4.419,0,0,1,598.465,368.838Z" transform="translate(-507.098 -318.633)" opacity="0.1"/>
        <ellipse id="Ellipse_144" data-name="Ellipse 144" cx="8.641" cy="5.869" rx="8.641" ry="5.869" transform="translate(50.377 61.363) rotate(-88.918)" fill="#636780"/>
        <ellipse id="Ellipse_145" data-name="Ellipse 145" cx="7.003" cy="4.266" rx="7.003" ry="4.266" transform="translate(52.206 59.885) rotate(-88.918)" opacity="0.1"/>
        <ellipse id="Ellipse_146" data-name="Ellipse 146" cx="7.003" cy="4.266" rx="7.003" ry="4.266" transform="translate(52.21 59.669) rotate(-88.918)" fill="#f0f0f4"/>
        <ellipse id="Ellipse_147" data-name="Ellipse 147" cx="0.864" cy="0.504" rx="0.864" ry="0.504" transform="translate(55.402 48.89) rotate(-88.918)" fill="#636780"/>
        <ellipse id="Ellipse_148" data-name="Ellipse 148" cx="0.864" cy="0.504" rx="0.864" ry="0.504" transform="translate(53.243 56.411) rotate(-88.918)" fill="#636780"/>
        <ellipse id="Ellipse_149" data-name="Ellipse 149" cx="0.864" cy="0.504" rx="0.864" ry="0.504" transform="translate(58.747 52.914) rotate(-88.918)" fill="#636780"/>
        <ellipse id="Ellipse_150" data-name="Ellipse 150" cx="0.864" cy="0.504" rx="0.864" ry="0.504" transform="translate(57.176 57.926) rotate(-88.918)" fill="#636780"/>
        <path id="Path_692" data-name="Path 692" d="M217.385,319.558s-4.424,11.152-4.221,11.858c0,0-1.8,1.046-2.229.768s.045-5.239.045-5.239l.893-4.358.967-2.575Z" transform="translate(-203.62 -283.518)" fill="#65617d"/>
        <path id="Path_693" data-name="Path 693" d="M217.385,319.558s-4.424,11.152-4.221,11.858c0,0-1.8,1.046-2.229.768s.045-5.239.045-5.239l.893-4.358.967-2.575Z" transform="translate(-203.62 -283.518)" opacity="0.15"/>
        <ellipse id="Ellipse_151" data-name="Ellipse 151" cx="0.864" cy="0.504" rx="0.864" ry="0.504" transform="translate(52.612 51.718) rotate(-88.918)" fill="#636780"/>
        <ellipse id="Ellipse_152" data-name="Ellipse 152" cx="2.052" cy="1.476" rx="2.052" ry="1.476" transform="translate(54.314 55.027) rotate(-88.918)" fill="#636780"/>
        <path id="Path_694" data-name="Path 694" d="M218.343,347.987c-.123,6.5,1.925,12.46,7.931,11.925,7.563-.019,8.253-5.116,8.376-11.617s-3.436-11.408-7.939-11.493S218.466,341.486,218.343,347.987Z" transform="translate(-209.559 -297.025)" fill="#636780"/>
        <path id="Path_695" data-name="Path 695" d="M218.124,350.387c.1-5.033,2.36-9.028,5.467-10.536,3.938.826,6.891,5.43,6.779,11.361-.1,5.328-.584,9.712-4.916,11.131C219.912,362.438,218.006,356.665,218.124,350.387Z" transform="translate(-209.388 -299.414)" opacity="0.1"/>
        <path id="Path_696" data-name="Path 696" d="M203.9,322.444s1.063.938,1.669.3c0,0,1.678-11.636,3.515-11.655l6.319.065a2.352,2.352,0,0,1,1.047,1.748l3.866,11.7,22.385.747,1.777-3.55-18.522-.3,0-.009c-.094-.36-2.979-11.469-5.033-12.883l0,0a.9.9,0,0,0-.226-.116s-7.7-1.172-10.253-.518c0,0-2.657.544-3.32,1.342l-.006.006c-.088.089-1.112,1.2-1.483,4.449Z" transform="translate(-198.248 -274.296)" opacity="0.1"/>
        <path id="Path_697" data-name="Path 697" d="M203.879,323.441s1.063.938,1.669.3c0,0,1.678-11.636,3.515-11.655l6.319.065a2.352,2.352,0,0,1,1.047,1.748l3.866,11.7,22.385.747,1.777-3.55-18.522-.3,0-.009c-.094-.36-2.979-11.469-5.033-12.883l0,0a.9.9,0,0,0-.226-.116s-7.7-1.172-10.253-.518c0,0-2.657.544-3.32,1.342l-.006.006c-.088.089-1.112,1.2-1.483,4.449Z" transform="translate(-198.233 -275.077)" fill="#65617d"/>
        <path id="Path_698" data-name="Path 698" d="M203.879,323.441s1.063.938,1.669.3c0,0,1.678-11.636,3.515-11.655l6.319.065a2.352,2.352,0,0,1,1.047,1.748l3.866,11.7,22.385.747,1.777-3.55-18.522-.3,0-.009c-.094-.36-2.979-11.469-5.033-12.883l0,0a.9.9,0,0,0-.226-.116s-7.7-1.172-10.253-.518c0,0-2.657.544-3.32,1.342l-.006.006c-.088.089-1.112,1.2-1.483,4.449Z" transform="translate(-198.233 -275.077)" opacity="0.1"/>
        <path id="Path_699" data-name="Path 699" d="M268.144,313.964c.521,1.036,4.926,13.759,4.926,13.759l3.175-2.209,0-.009c-.094-.36-2.982-11.481-5.036-12.885C269.85,312.826,267.79,313.26,268.144,313.964Z" transform="translate(-248.542 -278.084)" fill="#65617d"/>
        <path id="Path_700" data-name="Path 700" d="M215.677,292.206l2.381,8.363,13.236-.128-.131,1.24s-10.4,1.316-14.785-.819l-2.232-7.64-20.881-.286,4-.861Z" transform="translate(-189.919 -261.989)" fill="#65617d"/>
        <path id="Path_701" data-name="Path 701" d="M215.677,292.206l2.381,8.363,13.236-.128-.131,1.24s-10.4,1.316-14.785-.819l-2.232-7.64-20.881-.286,4-.861Z" transform="translate(-189.919 -261.989)" fill="#fff" opacity="0.1"/>
        <path id="Path_702" data-name="Path 702" d="M570.891,358.357s7.024,3.7,1.705,6.946l-1.41.3s5.218-3.611-3.319-7.3Z" transform="translate(-483.357 -313.866)" opacity="0.1"/>
        <path id="Path_703" data-name="Path 703" d="M569.895,358.339s7.024,3.7,1.705,6.946l-1.41.3s5.218-3.611-3.319-7.3Z" transform="translate(-482.576 -313.851)" fill="#dce0ed"/>
        <ellipse id="Ellipse_153" data-name="Ellipse 153" cx="6.751" cy="3.942" rx="6.751" ry="3.942" transform="translate(9.719 58.65) rotate(-88.918)" fill="#636780"/>
        <ellipse id="Ellipse_154" data-name="Ellipse 154" cx="5.471" cy="2.866" rx="5.471" ry="2.866" transform="translate(10.949 57.539) rotate(-88.918)" opacity="0.1"/>
        <ellipse id="Ellipse_155" data-name="Ellipse 155" cx="5.471" cy="2.866" rx="5.471" ry="2.866" transform="translate(10.953 57.323) rotate(-88.918)" fill="#f0f0f4"/>
        <ellipse id="Ellipse_156" data-name="Ellipse 156" cx="0.675" cy="0.339" rx="0.675" ry="0.339" transform="translate(13.12 48.896) rotate(-88.918)" fill="#636780"/>
        <ellipse id="Ellipse_157" data-name="Ellipse 157" cx="0.675" cy="0.339" rx="0.675" ry="0.339" transform="translate(11.654 54.776) rotate(-88.918)" fill="#636780"/>
        <ellipse id="Ellipse_158" data-name="Ellipse 158" cx="0.675" cy="0.339" rx="0.675" ry="0.339" transform="translate(15.359 52.033) rotate(-88.918)" fill="#636780"/>
        <ellipse id="Ellipse_159" data-name="Ellipse 159" cx="0.675" cy="0.339" rx="0.675" ry="0.339" transform="translate(14.293 55.951) rotate(-88.918)" fill="#636780"/>
        <ellipse id="Ellipse_160" data-name="Ellipse 160" cx="0.675" cy="0.339" rx="0.675" ry="0.339" transform="translate(11.24 51.111) rotate(-88.918)" fill="#636780"/>
        <ellipse id="Ellipse_161" data-name="Ellipse 161" cx="1.603" cy="0.992" rx="1.603" ry="0.992" transform="translate(12.376 53.692) rotate(-88.918)" fill="#636780"/>
        <path id="Path_704" data-name="Path 704" d="M408.359,259.531a133.706,133.706,0,0,0-27.627,4.178Z" transform="translate(-336.767 -236.497)" opacity="0.1"/>
        <path id="Path_705" data-name="Path 705" d="M243.45,157.693s.649.116.294.969a5.936,5.936,0,0,0-.415,1.294s-.657.326-.61-.793A1.672,1.672,0,0,1,243.45,157.693Z" transform="translate(-228.656 -156.724)" fill="#dce0ed"/>
        <path id="Path_708" data-name="Path 708" d="M354.987,468.546a.325.325,0,1,0-.314-.325A.325.325,0,0,0,354.987,468.546Z" transform="translate(-316.355 -399.716)" fill="#65617d"/>
      </g>
      <path id="Path_715" data-name="Path 715" d="M972.334,447.525a19.355,19.355,0,0,1-38.639,1.661c-.028-.314-.049-.629-.059-.948v-.016q-.014-.348-.014-.7a19.356,19.356,0,0,1,38.712,0Z" transform="translate(-740.652 -368.604)" fill="#65617d"/>
      <path id="Path_716" data-name="Path 716" d="M972.334,447.525a19.355,19.355,0,0,1-38.639,1.661c-.028-.314-.049-.629-.059-.948v-.016q-.014-.348-.014-.7a19.356,19.356,0,0,1,38.712,0Z" transform="translate(-740.652 -368.604)" opacity="0.2"/>
      <ellipse id="Ellipse_165" data-name="Ellipse 165" cx="10.558" cy="10.558" rx="10.558" ry="10.558" transform="translate(201.768 68.363)" fill="#dce0ed"/>
      <ellipse id="Ellipse_166" data-name="Ellipse 166" cx="6.335" cy="6.335" rx="6.335" ry="6.335" transform="translate(205.991 72.586)" fill="#65617d"/>
      <path id="Path_717" data-name="Path 717" d="M495.422,447.525a19.355,19.355,0,0,1-38.639,1.661c-.028-.314-.049-.629-.059-.948v-.016q-.014-.348-.014-.7a19.356,19.356,0,0,1,38.712,0Z" transform="translate(-367.072 -368.604)" fill="#65617d"/>
      <path id="Path_718" data-name="Path 718" d="M495.422,447.525a19.355,19.355,0,0,1-38.639,1.661c-.028-.314-.049-.629-.059-.948v-.016q-.014-.348-.014-.7a19.356,19.356,0,0,1,38.712,0Z" transform="translate(-367.072 -368.604)" opacity="0.2"/>
      <ellipse id="Ellipse_167" data-name="Ellipse 167" cx="10.558" cy="10.558" rx="10.558" ry="10.558" transform="translate(98.436 68.363)" fill="#dce0ed"/>
      <ellipse id="Ellipse_168" data-name="Ellipse 168" cx="6.335" cy="6.335" rx="6.335" ry="6.335" transform="translate(102.659 72.586)" fill="#65617d"/>
      <path id="Path_719" data-name="Path 719" d="M615.19,357.626l-6.458-.281-5.9-10.951-20.779-1.685-10.109,13.2.562,3.65-1.4,3.37-65.987.562V363.8h-.562L504,361.276h5.054l-3.65-3.931-12.917-10.951s-22.183.562-22.464,0,1.264-6.318,1.264-6.318l9.547-2.808,32.572-2.527c7.16-11.372,13.619-16.707,13.619-16.707H610.7l3.931,20.217v.048Z" transform="translate(-377.471 -282.332)" fill="#444053"/>
      <path id="Path_720" data-name="Path 720" d="M923.227,450.394s8.424-15.724,14.882-15.724h15.724s3.931,0,5.616,3.089l6.458,12.636h-5.054s-4.212-11.793-8.985-12.074-12.917,0-12.917,0-2.808,0-4.493,3.37-7.381,10.709-7.381,10.709S920.981,454.325,923.227,450.394Z" transform="translate(-732.12 -373.697)" fill="#33323d"/>
      <path id="Path_721" data-name="Path 721" d="M1075.424,342.351h-10.562l-.108,8.424,10.67-2.527Z" transform="translate(-834.055 -268.18)" fill="#33323d"/>
      <path id="Path_722" data-name="Path 722" d="M452,445.858a7.983,7.983,0,0,1,4.493-5.9l25.833-1.4s4.212.281,6.458,5.616l7.3,10.951v1.685h-8.143s-3.931-14.882-15.163-14.32H459.3s-3.089,0-4.212,5.054Z" transform="translate(-363.382 -376.742)" fill="#33323d"/>
      <path id="Path_723" data-name="Path 723" d="M731.926,314.643h86.2a3.089,3.089,0,0,0-3.089-3.089H735.015A3.089,3.089,0,0,0,731.926,314.643Z" transform="translate(-582.657 -277.256)" fill="#33323d"/>
      <path id="Path_724" data-name="Path 724" d="M725.117,347.452H701.263a1.613,1.613,0,0,1-1.474-2.268l3.775-8.493a7.413,7.413,0,0,1,6.774-4.4h14.493a2.03,2.03,0,0,1,2.03,2.03v11.39A1.743,1.743,0,0,1,725.117,347.452Z" transform="translate(-557.374 -293.499)" fill="#e02525" opacity="0.3"/>
      <path id="Path_726" data-name="Path 726" d="M5.539,0H17.767a5.539,5.539,0,0,1,5.539,5.539V9.623a5.539,5.539,0,0,1-5.539,5.539H5.539A5.539,5.539,0,0,1,0,9.623V5.539A5.539,5.539,0,0,1,5.539,0Z" transform="translate(175.664 38.791)" fill="#e02525" opacity="0.3"/>
      <path id="Path_725" data-name="Path 725" d="M960.194,185.022v.048l-36.223.514-.943-20.779h33.235Z" transform="translate(-723.036 -129.103)" fill="#33323d"/>
      <rect id="Rectangle_136" data-name="Rectangle 136" width="26.675" height="15.163" rx="5.539" transform="translate(204.024 38.791)" fill="#e02525" opacity="0.3"/>
      <rect id="Rectangle_137" data-name="Rectangle 137" width="8.985" height="1.685" rx="0.842" transform="translate(162.186 59.288)" fill="#33323d"/>
      <rect id="Rectangle_138" data-name="Rectangle 138" width="8.985" height="1.685" rx="0.842" transform="translate(188.019 59.288)" fill="#33323d"/>
    </g>
  </g>
</svg>
