<svg xmlns="http://www.w3.org/2000/svg" xmlns:xlink="http://www.w3.org/1999/xlink" width="367.859" height="287.212" viewBox="0 0 367.859 287.212">
  <defs>
    <linearGradient id="linear-gradient" x1="0.5" y1="1" x2="0.5" gradientUnits="objectBoundingBox">
      <stop offset="0" stop-color="gray" stop-opacity="0.251"/>
      <stop offset="0.54" stop-color="gray" stop-opacity="0.122"/>
      <stop offset="1" stop-color="gray" stop-opacity="0.102"/>
    </linearGradient>
    <linearGradient id="linear-gradient-2" y2="0" xlink:href="#linear-gradient"/>
    <filter id="Path_753" x="212.026" y="113.427" width="54.218" height="78.823" filterUnits="userSpaceOnUse">
      <feOffset dy="3" input="SourceAlpha"/>
      <feGaussianBlur stdDeviation="3" result="blur"/>
      <feFlood flood-opacity="0.161"/>
      <feComposite operator="in" in2="blur"/>
      <feComposite in="SourceGraphic"/>
    </filter>
  </defs>
  <g id="undraw_time_management_30iu" transform="translate(-0.003 -0.001)">
    <path id="Path_727" data-name="Path 727" d="M68.978,52.507c-2.4,1-4.868,2.276-6.188,4.518-1.4,2.369-1.231,5.311-.971,8.051,2.269,23.771,8.245,49.052-2.075,70.585-5.009,10.446-13.388,18.818-20.052,28.3S28,185.3,31.09,196.459c3.778,13.637,17.88,21.2,27.386,31.693,6.222,6.861,10.584,15.2,16.389,22.418s13.76,13.578,23.027,14c13.329.614,24.173-10.9,37.241-13.563,13.388-2.73,26.869,4.217,37.725,12.533s20.729,18.39,33.377,23.582c13.968,5.738,29.714,4.861,44.419,8.308,13.388,3.142,25.713,9.825,39,13.388s28.87,3.347,39.168-5.753c13.422-11.9,12.365-33.1,20.937-48.84,7.962-14.626,23.548-23.358,34.039-36.289,18.877-23.273,18.26-58.844,2.231-84.155s-45.062-40.636-74.75-44.627c-13.388-1.8-27.174-1.551-40.045-5.638-34.452-10.934-54.954-50.109-90.128-58.26-22.358-5.173-44.1,3.786-63.147,14.812C101.433,49.64,86.182,45.371,68.978,52.507Z" transform="translate(-30.153 -23.749)" fill="#e02525" opacity="0.1"/>
    <circle id="Ellipse_172" data-name="Ellipse 172" cx="134.624" cy="134.624" r="134.624" transform="translate(59.48 8.334)" fill="url(#linear-gradient)"/>
    <circle id="Ellipse_173" data-name="Ellipse 173" cx="132.393" cy="132.393" r="132.393" transform="translate(61.711 10.565)" fill="#e02525"/>
    <circle id="Ellipse_174" data-name="Ellipse 174" cx="105.245" cy="105.245" r="105.245" transform="translate(88.859 37.713)" fill="#dde1ec"/>
    <rect id="Rectangle_139" data-name="Rectangle 139" width="5.95" height="92.973" transform="translate(191.129 56.308)" fill="#535461" opacity="0.3"/>
    <g id="Group_21" data-name="Group 21" opacity="0.1">
      <rect id="Rectangle_140" data-name="Rectangle 140" width="84.047" height="7.438" transform="translate(200.427 140.727)"/>
      <rect id="Rectangle_141" data-name="Rectangle 141" width="7.438" height="59.696" transform="translate(137.637 119.488) rotate(-62.36)"/>
      <circle id="Ellipse_175" data-name="Ellipse 175" cx="11.157" cy="11.157" r="11.157" transform="translate(182.948 133.289)"/>
    </g>
    <rect id="Rectangle_142" data-name="Rectangle 142" width="84.047" height="7.438" transform="translate(200.427 139.239)" fill="#535461"/>
    <rect id="Rectangle_143" data-name="Rectangle 143" width="59.696" height="7.438" transform="translate(141.114 111.42) rotate(27.64)" fill="#535461"/>
    <circle id="Ellipse_176" data-name="Ellipse 176" cx="11.157" cy="11.157" r="11.157" transform="translate(182.948 131.802)" fill="#535461"/>
    <g id="Group_22" data-name="Group 22" opacity="0.1">
      <path id="Path_744" data-name="Path 744" d="M127.187,179.352a105.253,105.253,0,0,1,189.352-63.281A105.256,105.256,0,1,0,140.154,229.988a104.765,104.765,0,0,1-12.968-50.637Z" transform="translate(-30.153 -23.749)"/>
    </g>
    <path id="Path_745" data-name="Path 745" d="M321.5,89.287c-1.25-1.2-11.767,6.694-11.767,6.694s-3.745.684-2.852,3.254-3.923,16.962-3.923,16.962L301,113.456a11.765,11.765,0,0,0-1.558-6.917c-.071-.115-.141-.227-.212-.331l.342-.119c-.13-1.755-2.938-4.429-4.429-5.738v-.565c.093-2.1.933-4.31,0-6.211-1.056-2.168-4.147-3.258-4.407-5.638-.156-1.421.8-2.7,1.227-4.072,1.012-3.273-1.09-6.612-3.1-9.431A13.19,13.19,0,0,0,286.4,71.6a11.93,11.93,0,0,0-2.953-1.577,75.512,75.512,0,0,0-8.985-2.6c-2.912-.774-5.6-1.142-8.553-.171a4.206,4.206,0,0,0-1.859,1.067c-.7.788-.8,1.912-1.257,2.852-.744,1.514-2.347,2.417-3.764,3.388s-2.838,2.3-2.845,3.976c0,2.376,2.715,3.871,3.622,6.084.848,2.06,0,4.355-.472,6.527a4.384,4.384,0,0,0-.056,2.153,4.626,4.626,0,0,0,.833,1.45c.562.744,1.164,1.435,1.763,2.142L261.6,97c-4.991-.513-8.2,5.824-8.2,5.824.231.048.45.1.666.167l-.212.275a27.055,27.055,0,0,0-3.663,6.408l-4.091,5.482s-.893-13.708,1.25-16.791-1.96-4.968-1.96-4.968-8.925-9.937-10.164-9.082S238.259,95.963,242,97.677a16.461,16.461,0,0,1-.372,5.653c-.45,1.409-2.852,16.278-2.852,16.278s-2.138,12.507,7.668,6.322c6.37-4.009,10.487-10.911,12.585-15.248q.219-.457.413-.874a10.462,10.462,0,0,1,.2,1.395l.372,14.329a21.749,21.749,0,0,1-2.254,10.234l-4.37,8.862.487.149-.294.424c-2.878,4.236-7.773,13.76,2.3,18.613l13.388,1.714-.714,3.425s-5.526,10.45-7.133,17.646a52.881,52.881,0,0,1-4.637,12.678l.413.219c-.086.1-.175.2-.26.3a6.464,6.464,0,0,0-1.547,3.243l-1.815,2.573s-.714,10.621.714,13.195c.781,1.406,3.373,2.3,5.578,2.819a3.673,3.673,0,0,0,4.176-5.389l-.022-.037h-.033c-.372-1.729-1.51-7.1-1.138-9.134.1-.58.2-1.157.249-1.744a6.166,6.166,0,0,1,.692-2.205c.06-.115.123-.227.186-.338l.193.082c.6.257,1.19.5,1.752.71-.87.792-1.488,2.432-.744,5.805,0,0,.071,8.438.714,9.766s7.843,3.083,9.093,1.714-.8-6.084-.8-6.084l-.063.045c-.413-2.733-.922-7.627.331-9.554.506-.777,1-1.581,1.435-2.332l.271-.465h0c2.328,1.16,4.79,2.034,6.136,1.428,0,0,5.883-13.708,5.526-15.419s9.093-21.075,9.093-21.075,8.022-8.925-1.781-15.076c-3.113-1.96-5.381-3.276-7.029-4.165l-1.38-7.215a26.373,26.373,0,0,1,.372-11.4l1.488-5.675h0l.123-.483s3.745-7.709,3.566-11.309a2.6,2.6,0,0,1,.093-.829q.061.257.134.536a69.127,69.127,0,0,0,3.875,10.919c2.845,6.419,7.066,5.909,9.379,5a3.2,3.2,0,0,0,1.975-2.313c.833-3.994,3.12-15.184,3.265-18.275a51.981,51.981,0,0,1,.893-7.2C317.758,96.483,322.749,90.488,321.5,89.287Z" transform="translate(-30.153 -23.749)" fill="url(#linear-gradient-2)"/>
    <path id="Path_746" data-name="Path 746" d="M277.843,199.077s-.785,1.573-1.859,3.462c-.42.744-.889,1.543-1.369,2.313-1.7,2.719,0,11.38,0,11.38l-3.719.509-3.719-1.859L266.5,208.6V204l4.24-4.742,1.859-2.053Z" transform="translate(-30.153 -23.749)" fill="#f8bdc5"/>
    <g id="Group_23" data-name="Group 23" opacity="0.1">
      <path id="Path_747" data-name="Path 747" d="M277.843,199.077s-.785,1.573-1.859,3.462a46.058,46.058,0,0,1-4.753-2.923l-.327-.231-.175-.126,1.859-2.053Z" transform="translate(-30.153 -23.749)"/>
    </g>
    <path id="Path_748" data-name="Path 748" d="M296.025,167.31s-9,19.193-8.661,20.893-5.266,15.288-5.266,15.288c-1.279.6-3.63-.264-5.846-1.413a45.822,45.822,0,0,1-4.835-2.975l-.327-.231-.2-.141,14.779-40.938L272.6,148.2l-.967-.71-5.846-4.314,17.851,3.228s.621-.078,3.9,1.759c1.577.881,3.767,2.2,6.794,4.187C303.663,158.477,296.025,167.31,296.025,167.31Z" transform="translate(-30.153 -23.749)" fill="#797979"/>
    <path id="Path_750" data-name="Path 750" d="M268.672,202.472s-4.418-.681-2.886,6.456c0,0,.067,8.368.681,9.669s7.475,3.057,8.661,1.7-.766-6.028-.766-6.028-5.009,3.652-6.37-.257S268.672,202.472,268.672,202.472Z" transform="translate(-30.153 -23.749)" fill="#5d3e53"/>
    <path id="Path_751" data-name="Path 751" d="M265.612,201.115a5.355,5.355,0,0,0-1.157,1.607,6.292,6.292,0,0,0-.658,2.187c-.045.58-.138,1.157-.234,1.729-.424,2.421,1.2,9.595,1.2,9.595l-6.456,1.019-2.376-2.547-.509-5.6a20.307,20.307,0,0,0,1.019-5.95,6.235,6.235,0,0,1,1.488-3.719,10.226,10.226,0,0,1,1.722-1.707S266.973,199.925,265.612,201.115Z" transform="translate(-30.153 -23.749)" fill="#f8bdc5"/>
    <g id="Group_25" data-name="Group 25" opacity="0.1">
      <path id="Path_752" data-name="Path 752" d="M265.612,201.115a5.355,5.355,0,0,0-1.157,1.607c-2.644-1.194-5.422-2.7-6.434-3.258l-.078-.041a10.226,10.226,0,0,1,1.722-1.707S266.973,199.925,265.612,201.115Z" transform="translate(-30.153 -23.749)"/>
    </g>
    <g transform="matrix(1, 0, 0, 1, 0, 0)" filter="url(#Path_753)">
      <path id="Path_753-2" data-name="Path 753" d="M286.508,162.215s-4.243,7.984-6.965,14.608c-1.785,4.351-5.474,14.712-7.81,21.309l-.342.974c-1.026,2.919-1.711,4.894-1.711,4.894a4.422,4.422,0,0,1-1.335-.2c-.4-.108-.852-.253-1.331-.431l-.539-.2c-.536-.208-1.116-.45-1.67-.7-2.7-1.2-5.578-2.774-6.623-3.347l-.394-.219a53.73,53.73,0,0,0,4.429-12.581c1.528-7.133,6.794-17.479,6.794-17.479l.681-3.4-12.741-1.7c-9.6-4.8-4.935-14.255-2.194-18.453a24.8,24.8,0,0,1,1.514-2.109l10.194,2.231s1.607.513,5.177,2.094l1.64.744c2,.919,4.463,2.1,7.438,3.618C290.751,156.938,286.508,162.215,286.508,162.215Z" transform="translate(-30.16 -23.75)" fill="#797979"/>
    </g>
    <path id="Path_754" data-name="Path 754" d="M264.7,215.722a3.607,3.607,0,0,1-3.979,5.34c-2.086-.517-4.559-1.4-5.3-2.8-1.357-2.547-.681-13.079-.681-13.079l1.785-2.633s-.933,11.636,1.276,12.644,6.88.472,6.88.472Z" transform="translate(-30.153 -23.749)" fill="#5d3e53"/>
    <path id="Path_755" data-name="Path 755" d="M266.508,68a3.972,3.972,0,0,0-1.785,1.06c-.669.781-.744,1.9-1.2,2.83-.707,1.488-2.231,2.4-3.585,3.347s-2.7,2.283-2.711,3.942c0,2.358,2.6,3.838,3.451,6.028.807,2.045,0,4.318-.45,6.471a4.518,4.518,0,0,0-.052,2.135,4.638,4.638,0,0,0,.8,1.439c1.64,2.231,3.678,4.21,4.775,6.75a20.9,20.9,0,0,1,1.283,6.155,30.93,30.93,0,0,1,.059,9.056.915.915,0,0,0,0,.547.848.848,0,0,0,.435.372,8.925,8.925,0,0,0,12.083-4.463c.744-1.685,1.03-3.719,2.5-4.812a1.253,1.253,0,0,1,.6-.271,1.752,1.752,0,0,1,.967.324,9.523,9.523,0,0,0,6.359.64,5.911,5.911,0,0,0,3.455-1.718c1.677-1.993.744-4.972.855-7.572.089-2.079.889-4.273,0-6.155-1-2.15-3.953-3.228-4.2-5.578-.149-1.406.766-2.681,1.171-4.035.963-3.247-1.038-6.556-2.949-9.349a12.946,12.946,0,0,0-2.339-2.808,11.228,11.228,0,0,0-2.812-1.562,68.713,68.713,0,0,0-8.553-2.577C271.893,67.405,269.338,67.037,266.508,68Z" transform="translate(-30.153 -23.749)" fill="#85555c"/>
    <path id="Path_756" data-name="Path 756" d="M280.733,116.521h-9.855V100.552a29.745,29.745,0,0,0,.513-4.649V94.3a8.222,8.222,0,0,0-1.521-4.965c-2.719-3.057,8.832-2.547,8.832-2.547a28.75,28.75,0,0,0,1.376,4.113,25.01,25.01,0,0,0,3.31,5.828,13.485,13.485,0,0,0,4.489,3.819C294.66,103.951,280.733,116.521,280.733,116.521Z" transform="translate(-30.153 -23.749)" fill="#f8bdc5"/>
    <g id="Group_26" data-name="Group 26" opacity="0.1">
      <path id="Path_757" data-name="Path 757" d="M280.067,90.9a9.018,9.018,0,0,1-8.687,3.4,8.222,8.222,0,0,0-1.521-4.965c-2.719-3.057,8.832-2.547,8.832-2.547a28.75,28.75,0,0,0,1.376,4.113Z" transform="translate(-30.153 -23.749)"/>
    </g>
    <circle id="Ellipse_177" data-name="Ellipse 177" cx="9.003" cy="9.003" r="9.003" transform="translate(233.759 52.176)" fill="#f8bdc5"/>
    <path id="Path_758" data-name="Path 758" d="M310.287,100.384a53.516,53.516,0,0,0-.848,7.133c-.138,3.061-2.317,14.158-3.113,18.119a3.143,3.143,0,0,1-1.882,2.295c-2.209.9-6.225,1.409-8.925-4.954a70.421,70.421,0,0,1-3.693-10.822,29.247,29.247,0,0,1-.744-3.786l5.95-3.228a7.329,7.329,0,0,1,1.406,1.8,12.064,12.064,0,0,1,1.488,6.858l1.859,2.719s4.585-14.269,3.719-16.817,2.719-3.228,2.719-3.228,10.022-7.81,11.213-6.623S315.891,96.985,310.287,100.384Z" transform="translate(-30.153 -23.749)" fill="#f8bdc5"/>
    <path id="Path_759" data-name="Path 759" d="M261.536,107.179a40.165,40.165,0,0,1-1.6,3.9c-2,4.3-5.92,11.157-11.99,15.121-9.342,6.114-7.3-6.285-7.3-6.285s2.287-14.742,2.719-16.136a17.629,17.629,0,0,0,.338-5.6c-3.566-1.7-7.642-12.4-6.456-13.25s9.669,9,9.669,9,3.909,1.859,1.859,4.928-1.19,16.646-1.19,16.646l3.931-5.426a27.109,27.109,0,0,1,3.492-6.352c.744-1.015,1.264-1.629,1.264-1.629Z" transform="translate(-30.153 -23.749)" fill="#f8bdc5"/>
    <g id="Group_27" data-name="Group 27" opacity="0.1">
      <path id="Path_760" data-name="Path 760" d="M298.442,106.945c-1.25.461-6.088,2.414-6.623,5.206a29.251,29.251,0,0,1-.744-3.786l5.95-3.228a7.331,7.331,0,0,1,1.417,1.807Z" transform="translate(-30.153 -23.749)"/>
    </g>
    <g id="Group_28" data-name="Group 28" opacity="0.1">
      <path id="Path_761" data-name="Path 761" d="M261.536,107.179a40.165,40.165,0,0,1-1.6,3.9c-.231-1.681-1.179-5.98-4.931-7.367.744-1.015,1.264-1.629,1.264-1.629Z" transform="translate(-30.153 -23.749)"/>
    </g>
    <g id="Group_29" data-name="Group 29" opacity="0.1">
      <path id="Path_762" data-name="Path 762" d="M280.733,116.521h-9.855V100.552a29.745,29.745,0,0,0,.513-4.649,6.128,6.128,0,0,1,1.525,4.987l5.266,11.9,2.551-10.521-.848-1.357,3.5-4.158a13.485,13.485,0,0,0,4.489,3.819C294.66,103.951,280.733,116.521,280.733,116.521Z" transform="translate(-30.153 -23.749)"/>
    </g>
    <g id="Group_30" data-name="Group 30" opacity="0.1">
      <path id="Path_763" data-name="Path 763" d="M287.694,149.128s-7.72-.614-14.418-.9l-.673-.03c-.952-.037-1.859-.067-2.748-.089a61.559,61.559,0,0,1-15.1-2.826,24.793,24.793,0,0,1,1.517-2.1l10.194,2.231s1.607.513,5.177,2.094l-5.857-4.325,17.851,3.228s.621-.078,3.9,1.759Z" transform="translate(-30.153 -23.749)"/>
    </g>
    <path id="Path_764" data-name="Path 764" d="M280.733,102.932l-.848-1.357,3.771-4.511s7.776,3.812,9.814,2.975c0,0,4.928,4.091,5.095,6.456,0,0-7.133,2.376-6.965,5.95s-3.384,11.209-3.384,11.209l-1.488,6.106a27.181,27.181,0,0,0-.372,11.305l1.357,7.561s-10.7-.848-17.851-1.019-15.288-2.886-15.288-2.886l4.169-8.773a22.314,22.314,0,0,0,2.15-10.145l-.372-14.2s-.338-7.133-5.95-8.323c0,0,3.057-6.285,7.81-5.775,0,0,6.925-2.89,8.981-.937a6.119,6.119,0,0,1,1.551,5.013l5.266,11.9Z" transform="translate(-30.153 -23.749)" fill="#ed677b"/>
    <g id="Group_31" data-name="Group 31" opacity="0.1">
      <path id="Path_765" data-name="Path 765" d="M266.419,83.073c1.365,0,2.436-1.447,3.8-1.372a3.871,3.871,0,0,1,1.9.893,23.15,23.15,0,0,0,7.256,3.347,6.329,6.329,0,0,0,3.087.223,2.632,2.632,0,0,0,2.075-2.079,3.544,3.544,0,0,0-.178-1.35,16.687,16.687,0,0,0-7.267-9.591c-1.413-.867-3.139-1.528-4.7-.986-1.413.487-2.324,1.811-3.347,2.9a12.718,12.718,0,0,1-2.6,2.112c-.744.45-1.859.744-2.287,1.569C263.339,80.28,264.607,83.058,266.419,83.073Z" transform="translate(-30.153 -23.749)"/>
    </g>
    <path id="Path_766" data-name="Path 766" d="M266.419,82.734c1.365,0,2.436-1.447,3.8-1.372a3.871,3.871,0,0,1,1.9.893,23.15,23.15,0,0,0,7.256,3.347,6.329,6.329,0,0,0,3.087.223,2.632,2.632,0,0,0,2.075-2.079,3.544,3.544,0,0,0-.178-1.35,16.687,16.687,0,0,0-7.267-9.591c-1.413-.867-3.139-1.528-4.7-.986-1.413.487-2.324,1.811-3.347,2.9a12.718,12.718,0,0,1-2.6,2.112c-.744.45-1.859.744-2.287,1.569C263.339,79.956,264.607,82.716,266.419,82.734Z" transform="translate(-30.153 -23.749)" fill="#85555c"/>
    <path id="Path_767" data-name="Path 767" d="M262.3,121.53s8.323,3.057,13.76.681l2.719.171s4.518,3.169,9.3,1.752" transform="translate(-30.153 -23.749)" opacity="0.05"/>
    <path id="Path_768" data-name="Path 768" d="M301.711,116.435s-1.357,3.228-.681,4.247" transform="translate(-30.153 -23.749)" opacity="0.05"/>
    <path id="Path_769" data-name="Path 769" d="M247.523,115.416s.681,3.228,0,4.247" transform="translate(-30.153 -23.749)" opacity="0.05"/>
  </g>
</svg>
