<svg xmlns="http://www.w3.org/2000/svg" width="258.702" height="251.887" viewBox="0 0 258.702 251.887">
  <g id="Group_351" data-name="Group 351" transform="translate(-1086 -3803.129)">
    <g id="undraw_pay_online_b1hk" transform="translate(1086 3803.129)">
      <path id="Path_779" data-name="Path 779" d="M188.317,225.339c-1,0-2-.016-2.988-.047l.022-.717c1.417.044,2.864.056,4.288.037l.01.718Q188.984,225.339,188.317,225.339Zm5.649-.166-.042-.716c1.419-.084,2.857-.2,4.273-.35l.075.713C196.846,224.969,195.4,225.088,193.967,225.172Zm-12.951-.112c-1.431-.11-2.878-.253-4.3-.428l.088-.712c1.411.173,2.846.316,4.266.424Zm21.543-.789-.108-.709c1.41-.214,2.832-.463,4.223-.739l.14.7C205.411,223.805,203.979,224.056,202.558,224.271Zm-30.117-.262c-1.414-.24-2.841-.515-4.242-.819l.152-.7c1.39.3,2.807.575,4.21.813Zm38.589-1.422-.172-.7c1.384-.342,2.777-.721,4.138-1.124l.2.688C213.828,221.861,212.426,222.243,211.031,222.587ZM164,222.176c-1.387-.369-2.783-.775-4.149-1.207l.216-.684c1.356.429,2.741.831,4.117,1.2Zm55.313-2.046-.235-.678c1.343-.467,2.695-.972,4.017-1.5l.266.666C222.028,219.151,220.667,219.66,219.313,220.13Zm-63.561-.562c-1.347-.5-2.7-1.029-4.029-1.588l.279-.662c1.316.554,2.661,1.084,4,1.576Zm71.573-2.644-.3-.653c1.29-.586,2.587-1.212,3.854-1.86l.327.639C229.931,215.7,228.625,216.334,227.325,216.925ZM235,213l-.355-.623c1.237-.706,2.472-1.448,3.67-2.206l.383.606C237.494,211.541,236.25,212.289,235,213Zm7.292-4.613-.411-.588c1.165-.814,2.328-1.667,3.456-2.533l.437.569C244.641,206.708,243.469,207.566,242.295,208.386ZM132.92,207.376c-1.158-.841-2.315-1.723-3.439-2.62l.448-.561c1.115.89,2.264,1.765,3.413,2.6Zm116.219-4.25-.463-.549c1.086-.916,2.167-1.871,3.212-2.838l.487.527C251.323,201.24,250.234,202.2,249.14,203.126Zm-122.974-1.143c-1.079-.945-2.15-1.927-3.185-2.921l.5-.518c1.027.986,2.09,1.961,3.161,2.9Zm129.315-4.722-.511-.5c1-1.014,1.991-2.064,2.943-3.12l.533.48c-.959,1.064-1.956,2.122-2.965,3.144ZM119.932,196c-.99-1.041-1.967-2.116-2.905-3.2l.542-.47c.931,1.073,1.9,2.14,2.883,3.173Zm141.333-5.16-.554-.456c.9-1.1,1.795-2.236,2.647-3.376l.575.43C263.074,188.587,262.176,189.732,261.265,190.84Zm-146.994-1.362c-.889-1.123-1.764-2.283-2.6-3.446l.582-.419c.831,1.155,1.7,2.305,2.582,3.42Zm152.171-5.561-.594-.4c.8-1.178,1.584-2.391,2.329-3.605l.612.376C268.038,181.508,267.248,182.73,266.442,183.918Zm-157.213-1.446c-.782-1.2-1.547-2.432-2.275-3.667l.618-.364c.722,1.225,1.482,2.45,2.258,3.639Zm161.739-5.924-.628-.347c.689-1.247,1.358-2.527,1.99-3.806l.643.318c-.636,1.288-1.311,2.578-2.005,3.834Zm3.832-7.758-.657-.288c.572-1.306,1.121-2.643,1.632-3.975l.67.257c-.515,1.342-1.069,2.69-1.645,4.006Zm-173.629-1.548c-.55-1.32-1.077-2.671-1.566-4.015l.675-.245c.485,1.334,1.008,2.674,1.553,3.984ZM277.9,160.705l-.681-.226c.448-1.349.87-2.729,1.256-4.1l.691.194C278.781,157.956,278.355,159.346,277.9,160.705Zm-179.68-1.573c-.427-1.368-.828-2.765-1.192-4.153l.694-.182c.361,1.378.76,2.764,1.183,4.121Zm182.019-6.744-.7-.163c.321-1.383.615-2.8.873-4.2l.706.13C280.863,149.572,280.567,150.995,280.243,152.389ZM96.032,150.776c-.3-1.4-.57-2.829-.8-4.245l.708-.118c.233,1.4.5,2.822.8,4.213Zm185.774-6.883-.711-.1c.193-1.405.356-2.839.485-4.26l.715.064C282.165,141.033,282,142.477,281.807,143.893ZM94.618,142.255c-.169-1.421-.308-2.867-.413-4.3l.716-.053c.1,1.422.242,2.858.41,4.268Zm187.969-6.964-.717-.032c.064-1.422.1-2.864.1-4.286h.718C282.684,132.4,282.652,133.858,282.587,135.291Zm-188.6-1.651c-.025-.88-.037-1.778-.037-2.668q0-.828.014-1.654l.718.013q-.014.819-.014,1.641c0,.883.013,1.774.037,2.648Zm.865-8.593L94.136,125c.09-1.434.213-2.882.367-4.3l.713.077c-.153,1.412-.275,2.849-.364,4.272ZM281.5,120.669c-.143-1.415-.34-2.1-.549-3.513l.71-.1c.21,1.419.389,2.5.534,3.928ZM95.776,116.524l-.709-.11c.22-1.42.475-2.851.759-4.253l.7.142c-.282,1.392-.535,2.812-.753,4.221ZM280.23,112.93c-.274-1.4-.582-2.809-.918-4.188l.7-.17c.338,1.39.649,2.81.925,4.22ZM97.475,108.122l-.7-.174c.348-1.39.734-2.791,1.147-4.166l.687.206C98.2,105.352,97.821,106.743,97.475,108.122ZM278.2,104.6c-.4-1.366-.837-2.741-1.3-4.086l.678-.233c.466,1.355.907,2.74,1.31,4.117ZM99.946,99.9l-.677-.238c.477-1.357.992-2.72,1.53-4.051l.665.269C100.93,97.2,100.419,98.554,99.946,99.9Zm175.47-3.407c-.524-1.321-1.084-2.646-1.667-3.94l.655-.295c.587,1.3,1.152,2.639,1.679,3.97ZM103.167,91.936l-.652-.3c.6-1.305,1.237-2.614,1.9-3.89l.638.329C104.394,89.341,103.761,90.64,103.167,91.936ZM271.9,88.693c-.642-1.267-1.323-2.536-2.023-3.773l.624-.354c.705,1.246,1.391,2.525,2.038,3.8Zm-164.8-4.388-.622-.358c.716-1.243,1.471-2.487,2.244-3.7l.6.386C108.565,81.837,107.816,83.072,107.105,84.305Zm160.582-3.062c-.758-1.207-1.552-2.41-2.36-3.574l.589-.409c.814,1.174,1.614,2.385,2.378,3.6ZM111.724,77.072l-.587-.413c.827-1.173,1.692-2.343,2.571-3.476l.567.44C113.4,74.747,112.545,75.908,111.724,77.072ZM262.806,74.2c-.865-1.133-1.765-2.259-2.677-3.347l.55-.461c.919,1.1,1.826,2.231,2.7,3.372ZM116.982,70.294l-.546-.465c.928-1.09,1.9-2.176,2.876-3.226l.525.49C118.864,68.134,117.9,69.212,116.982,70.294ZM257.3,67.636c-.964-1.049-1.964-2.089-2.972-3.091l.506-.509c1.015,1.009,2.023,2.057,2.994,3.114ZM122.832,64.025l-.5-.513c1.026-1,2.088-2,3.156-2.95l.478.535c-1.06.946-2.114,1.931-3.132,2.927Zm128.388-2.433c-1.056-.958-2.147-1.9-3.242-2.809l.458-.553c1.1.912,2.2,1.865,3.266,2.83Zm-122-3.277-.453-.556c1.11-.9,2.257-1.8,3.409-2.65l.427.576c-1.144.848-2.282,1.733-3.384,2.63Zm6.883-5.1-.4-.6c1.188-.8,2.411-1.582,3.635-2.327l.373.613c-1.215.739-2.428,1.516-3.607,2.309Zm7.315-4.45-.344-.63c1.257-.688,2.545-1.355,3.83-1.983l.315.645C145.95,47.42,144.671,48.082,143.424,48.765ZM230.03,47.1c-1.277-.636-2.585-1.251-3.888-1.827l.29-.656c1.313.58,2.631,1.2,3.918,1.841ZM151.11,45l-.285-.658c1.313-.569,2.657-1.115,3.993-1.623l.255.671C153.747,43.9,152.413,44.44,151.11,45Zm71.063-1.376c-1.329-.515-2.689-1.007-4.042-1.461l.228-.68c1.364.458,2.734.953,4.073,1.473Zm-63.058-1.664-.224-.682c1.364-.447,2.755-.868,4.135-1.251l.192.691C161.849,41.1,160.468,41.522,159.115,41.965ZM214.035,40.9c-1.369-.39-2.765-.754-4.149-1.08l.165-.7c1.4.329,2.8.7,4.181,1.088Zm-46.66-1.226-.16-.7c1.4-.319,2.822-.61,4.233-.865l.128.706C170.176,39.067,168.763,39.356,167.375,39.673Zm38.316-.742c-1.4-.262-2.821-.5-4.231-.694l.1-.711c1.421.2,2.855.435,4.264.7Zm-29.88-.781-.095-.711c1.421-.19,2.865-.349,4.294-.473l.062.715C178.655,37.8,177.222,37.962,175.812,38.15Zm21.391-.412c-1.414-.133-2.852-.236-4.277-.3l.035-.717c1.435.07,2.884.173,4.309.307Zm-12.851-.333-.03-.717c1.319-.055,2.663-.083,4-.083h.325l0,.718h-.323C186.995,37.323,185.661,37.351,184.352,37.405Z" transform="translate(-73.348 -36.605)" fill="#3f3d56"/>
      <path id="Path_780" data-name="Path 780" d="M308.079,166.587l3.588,55.615s8.611,21.887,8.253,42.7c0,0-3.229,8.253-.718,9.688s3.947,2.512,2.512,3.588-2.512,3.588-1.435,4.306,1.435,1.794,1.076,1.794H310.591s2.153-5.382-1.076-6.817-1.435-5.023-1.435-5.023l-24.04-70.327L265.022,266.7s3.229,2.153.718,3.229-3.588-1.076-2.512,1.076-.359,3.229-.359,3.588-10.764-1.076-10.764-1.076,5.382-4.665,2.87-5.741-3.588-2.153-2.87-2.87,3.588-7.535,3.588-7.535,1.435-25.834,1.794-26.911,0-6.1,0-8.611-.359-12.558.718-15.07,2.153-33.369,7.894-36.957S308.079,166.587,308.079,166.587Z" transform="translate(-93.507 -53.194)" fill="#2f2e41"/>
      <path id="Path_781" data-name="Path 781" d="M259.916,288.216s7.176,14.711,2.153,16.505-11.482.359-12.917,2.512-17.223,4.665-17.582-.718,17.223-15.429,17.223-15.429l2.29-3.688Z" transform="translate(-90.913 -68.616)" fill="#2f2e41"/>
      <path id="Path_782" data-name="Path 782" d="M326.548,300.556s7.176,14.711,2.153,16.505-11.482.359-12.917,2.512-17.223,4.664-17.582-.718,17.223-15.429,17.223-15.429l2.29-3.688Z" transform="translate(-99.418 -70.191)" fill="#2f2e41"/>
      <circle id="Ellipse_178" data-name="Ellipse 178" cx="11.841" cy="11.841" r="11.841" transform="translate(182.1 22.076)" fill="#a0616a"/>
      <path id="Path_783" data-name="Path 783" d="M229.366,46.077l-1.435,10.405-10.764,8.253-2.87-3.947V47.153Z" transform="translate(-27.353 -5.881)" fill="#a0616a"/>
      <path id="Path_784" data-name="Path 784" d="M280.526,97.48s11.123,1.076,16.864-2.87l11.482,67.815s-40.545,3.229-42.34,1.076v-21.17l7.176-34.446Z" transform="translate(-95.376 -44.009)" fill="#3f3d56"/>
      <path id="Path_785" data-name="Path 785" d="M299.23,90.893l3.858,3.242s15.788,2.512,14.711,6.817L313.494,151.9l1.435,17.223s-12.2-3.229-21.529,0-1.917-69.395-1.917-69.395S300.036,91.957,299.23,90.893Z" transform="translate(-98.205 -43.534)" fill="#d0cde1"/>
      <path id="Path_786" data-name="Path 786" d="M281.847,95.4s-11.482,8.285-12.917,13.667-6.1,62.074-6.1,62.074,2.153-1.076,3.229.718S283.642,98.233,281.847,95.4Z" transform="translate(-94.904 -44.109)" fill="#d0cde1"/>
      <path id="Path_787" data-name="Path 787" d="M278.952,72.2a5.66,5.66,0,0,1-.789-3.993,12.1,12.1,0,0,0,.345-3.6,35.618,35.618,0,0,1,2.071-5.226c1.035-1.873.542-2.662,3.8-3.254s1.923-4.832,10.5-.246a2.516,2.516,0,0,0,2.613.986c1.775-.345,2.416,2.12,2.416,2.12s1.183-.69,1.627.3,3.607-.592,3.607,6.064a27.557,27.557,0,0,1-3.6,12.6s.264-11.2-5.6-12.33-12.177-4.437-13.706-.2a32.322,32.322,0,0,1-3.279,6.779Z" transform="translate(-96.847 -38.796)" fill="#2f2e41"/>
      <ellipse id="Ellipse_179" data-name="Ellipse 179" cx="1.157" cy="1.543" rx="1.157" ry="1.543" transform="translate(203.664 32.977)" fill="#a0616a"/>
      <path id="Path_788" data-name="Path 788" d="M248.27,203.148a12.916,12.916,0,0,0-7.564-1.447,11.152,11.152,0,0,0,12.386,7.452A12.925,12.925,0,0,0,248.27,203.148Z" transform="translate(-92.08 -57.669)" fill="#d0cde1"/>
      <path id="Path_789" data-name="Path 789" d="M261.49,242.207H243.745a3.993,3.993,0,1,0,0,7.985H261.49a3.993,3.993,0,0,0,0-7.985Z" transform="translate(-91.958 -62.848)" fill="#d0cde1"/>
      <path id="Path_790" data-name="Path 790" d="M340.938,193.9H241.446a8.813,8.813,0,0,0-8.813,8.813v48.475A8.813,8.813,0,0,0,241.446,260h99.492a8.813,8.813,0,0,0,8.813-8.813V202.709a8.813,8.813,0,0,0-8.813-8.813Zm-101.954,6.012A12.163,12.163,0,0,1,253.1,208.4l.156.484-.5.089a13.291,13.291,0,0,1-2.159.159,12.856,12.856,0,0,1-6.554-1.652,13.921,13.921,0,0,1-5.4-7l-.156-.484Zm21.6,45.006H242.836a4.88,4.88,0,1,1,0-9.76h17.745a4.88,4.88,0,0,1,0,9.76Zm80.741-.887A5.339,5.339,0,0,1,336,249.35H322.69a5.339,5.339,0,0,1-5.324-5.324v-7.985a5.339,5.339,0,0,1,5.324-5.324H336a5.339,5.339,0,0,1,5.324,5.324Z" transform="translate(-91.049 -56.681)" fill="#e02525"/>
      <path id="Path_791" data-name="Path 791" d="M339.626,249.581h-5.767a1.553,1.553,0,0,0,0,3.105h5.767a1.553,1.553,0,1,0,0-3.105Zm0,2.218h-5.767a.665.665,0,1,1,0-1.331h5.767a.665.665,0,1,1,0,1.331Z" transform="translate(-103.772 -63.789)" fill="#d0cde1"/>
      <path id="Path_792" data-name="Path 792" d="M351.831,249.581h-5.767a1.553,1.553,0,0,0,0,3.105h5.767a1.553,1.553,0,0,0,0-3.105Zm0,2.218h-5.767a.665.665,0,0,1,0-1.331h5.767a.665.665,0,1,1,0,1.331Z" transform="translate(-105.33 -63.789)" fill="#d0cde1"/>
      <path id="Path_793" data-name="Path 793" d="M339.626,245h-5.767a1.553,1.553,0,0,0,0,3.105h5.767a1.553,1.553,0,1,0,0-3.105Zm0,2.218h-5.767a.665.665,0,0,1,0-1.331h5.767a.665.665,0,1,1,0,1.331Z" transform="translate(-103.772 -63.205)" fill="#d0cde1"/>
      <path id="Path_794" data-name="Path 794" d="M351.831,245h-5.767a1.553,1.553,0,0,0,0,3.105h5.767a1.553,1.553,0,0,0,0-3.105Zm0,2.218h-5.767a.665.665,0,0,1,0-1.331h5.767a.665.665,0,1,1,0,1.331Z" transform="translate(-105.33 -63.205)" fill="#d0cde1"/>
      <path id="Path_795" data-name="Path 795" d="M339.626,240.427h-5.767a1.553,1.553,0,0,0,0,3.105h5.767a1.553,1.553,0,1,0,0-3.105Zm0,2.218h-5.767a.665.665,0,0,1,0-1.331h5.767a.665.665,0,1,1,0,1.331Z" transform="translate(-103.772 -62.621)" fill="#d0cde1"/>
      <path id="Path_796" data-name="Path 796" d="M351.831,240.427h-5.767a1.553,1.553,0,0,0,0,3.105h5.767a1.553,1.553,0,0,0,0-3.105Zm0,2.218h-5.767a.665.665,0,0,1,0-1.331h5.767a.665.665,0,1,1,0,1.331Z" transform="translate(-105.33 -62.621)" fill="#d0cde1"/>
      <path id="Path_797" data-name="Path 797" d="M318.614,181.028l-2.572,8.393s-.657,15.647-9.269,13.494,2.512-20.452,2.512-20.452l2.512-3.947Z" transform="translate(-100.095 -54.718)" fill="#a0616a"/>
      <path id="Path_798" data-name="Path 798" d="M262.676,181.028l-2.572,8.393s-.657,15.647-9.269,13.494,2.512-20.452,2.512-20.452l2.512-3.947Z" transform="translate(-92.956 -54.718)" fill="#a0616a"/>
      <path id="Path_799" data-name="Path 799" d="M317.666,99.535s5.741-1.435,7.535,8.253,3.947,37.316,3.947,37.316l-8.611,29.064s-8.611-4.665-10.405-3.947l6.777-25.232-5.7-25.719S316.231,99.535,317.666,99.535Z" transform="translate(-100.941 -44.628)" fill="#d0cde1"/>
      <path id="Path_800" data-name="Path 800" d="M238.866,86.125l7.535,25.117-7.535,25.475,4.306-25.475Z" transform="translate(-30.489 -10.993)" opacity="0.15"/>
      <path id="Path_801" data-name="Path 801" d="M267.933,122.167l-12.917,50.951s6.814,2.249,9.325,4.043Z" transform="translate(-93.906 -47.526)" fill="#d0cde1"/>
      <path id="Path_806" data-name="Path 806" d="M35.881,0A35.881,35.881,0,1,1,0,35.881,35.881,35.881,0,0,1,35.881,0Z" transform="translate(2.642 130.924)" fill="#eaa82d"/>
      <circle id="Ellipse_181" data-name="Ellipse 181" cx="30.858" cy="30.858" r="30.858" transform="translate(7.665 135.947)" fill="#e02525" opacity="0.1"/>
      <path id="Path_802" data-name="Path 802" d="M111.922,243.347v-4.491a10.429,10.429,0,0,1-5.989-1.957l.939-2.979a9.574,9.574,0,0,0,5.637,1.912,4.317,4.317,0,0,0,4.658-4.358c0-2.446-1.527-3.958-4.423-5.292-3.993-1.779-6.459-3.824-6.459-7.693a6.992,6.992,0,0,1,5.911-7.159v-4.491h2.427v4.313a9.524,9.524,0,0,1,5.089,1.556l-.979,2.935a8.65,8.65,0,0,0-4.932-1.512c-3.014,0-4.149,2.045-4.149,3.824,0,2.312,1.448,3.468,4.854,5.069,4.032,1.868,6.067,4.18,6.067,8.137a7.441,7.441,0,0,1-6.185,7.559v4.625Z" transform="translate(-74.878 -58.333)" fill="#e3b92d"/>
      <path id="Path_803" data-name="Path 803" d="M146.76,310.219a259.071,259.071,0,0,1-76.426,0v-8.611a287.884,287.884,0,0,0,76.426,0Z" transform="translate(-70.334 -70.43)" fill="#eaa82d"/>
      <path id="Path_804" data-name="Path 804" d="M146.76,295a259.069,259.069,0,0,1-76.426,0v-8.611a287.884,287.884,0,0,0,76.426,0Z" transform="translate(-70.334 -68.487)" fill="#eaa82d"/>
      <path id="Path_805" data-name="Path 805" d="M146.76,279.782a259.071,259.071,0,0,1-76.426,0v-8.611a287.884,287.884,0,0,0,76.426,0Z" transform="translate(-70.334 -66.545)" fill="#eaa82d"/>
    </g>
  </g>
</svg>
