<svg xmlns="http://www.w3.org/2000/svg" width="178.863" height="188.045" viewBox="0 0 178.863 188.045"><defs><style>.a{fill:#e6e6e6;}.b{fill:#fff;}.c{fill:#e02525;}.d{fill:#3f3d56;}.e{fill:#2f2e41;}.f{fill:#ccc;}</style></defs><g transform="translate(0 -12.412)"><path class="a" d="M385.264,130.8h-1.1v-28.3c0-9.047-7.819-16.382-17.463-16.382H302.774c-9.645,0-17.463,7.334-17.463,16.382V257.774c0,9.048,7.819,16.382,17.463,16.382H366.7c9.645,0,17.463-7.334,17.463-16.382V150.945h1.1Z" transform="translate(-285.311 -73.699)"/><path class="b" d="M380.08,102.606h-8.344a5.5,5.5,0,0,1-.595,5.435A6.317,6.317,0,0,1,366,110.61H329.377a6.317,6.317,0,0,1-5.142-2.569,5.5,5.5,0,0,1-.595-5.435h-7.794c-7.2,0-13.041,5.475-13.041,12.229V269.829c0,6.754,5.839,12.229,13.041,12.229H380.08c7.2,0,13.041-5.475,13.041-12.229h0V114.835c0-6.754-5.839-12.229-13.041-12.229Z" transform="translate(-297.987 -86.144)"/><path class="a" d="M405.109,516.17H328.092a1.428,1.428,0,0,1-1.426-1.426v-19.1a1.428,1.428,0,0,1,1.426-1.426h77.017a1.428,1.428,0,0,1,1.426,1.426v19.1A1.428,1.428,0,0,1,405.109,516.17Zm-77.017-21.387a.857.857,0,0,0-.856.856v19.1a.857.857,0,0,0,.856.856h77.017a.857.857,0,0,0,.856-.856v-19.1a.857.857,0,0,0-.856-.856Z" transform="translate(-315.275 -381.806)"/><circle class="a" cx="5.99" cy="5.99" r="5.99" transform="translate(16.81 117.395)"/><path class="a" d="M415.691,519.573a1,1,0,1,0,0,2h47.066a1,1,0,0,0,.039-2h-47.1Z" transform="translate(-379.056 -400.181)"/><path class="a" d="M415.691,541.321a1,1,0,1,0,0,2h47.066a1,1,0,0,0,.033-2h-47.1Z" transform="translate(-379.056 -415.939)"/><path class="a" d="M405.109,632.16H328.092a1.428,1.428,0,0,1-1.426-1.426v-19.1a1.428,1.428,0,0,1,1.426-1.426h77.017a1.428,1.428,0,0,1,1.426,1.426v19.1a1.428,1.428,0,0,1-1.426,1.426Zm-77.017-21.387a.857.857,0,0,0-.856.856v19.1a.857.857,0,0,0,.856.856h77.017a.857.857,0,0,0,.856-.856v-19.1a.857.857,0,0,0-.856-.856Z" transform="translate(-315.275 -465.849)"/><circle class="a" cx="5.99" cy="5.99" r="5.99" transform="translate(16.81 149.342)"/><path class="a" d="M415.691,635.563a1,1,0,1,0,0,2h47.066a1,1,0,1,0,.033-2h-47.1Z" transform="translate(-379.056 -484.223)"/><path class="a" d="M415.691,657.311a1,1,0,1,0,0,2h47.066a1,1,0,1,0,.033-2h-47.1Z" transform="translate(-379.056 -499.981)"/><path class="a" d="M394.483,287.423a27.087,27.087,0,0,1-27.1-27.076v-.023c0-.057,0-.117,0-.173a27.1,27.1,0,1,1,27.1,27.272h0Zm0-53.628a26.585,26.585,0,0,0-26.525,26.373c0,.061,0,.11,0,.155A26.531,26.531,0,1,0,394.487,233.8Z" transform="translate(-344.778 -192.705)"/><circle class="b" cx="11.017" cy="11.017" r="11.017" transform="translate(75.777 105.449)"/><path class="c" d="M563.269,511.881H557.29a2.864,2.864,0,1,1,0-5.727h6.019a2.864,2.864,0,1,1-.038,5.728Z" transform="translate(-480.301 -390.458)"/><rect class="d" width="89.251" height="0.617" transform="translate(89.612 199.787)"/><path class="c" d="M626.126,573.375a1.807,1.807,0,0,1-.173-.347l-1.422-3.808a1.792,1.792,0,0,1,1.051-2.3l31.742-11.853a1.792,1.792,0,0,1,2.3,1.051l1.422,3.809a1.79,1.79,0,0,1-1.051,2.3l-31.742,11.853A1.792,1.792,0,0,1,626.126,573.375Z" transform="translate(-531.015 -425.815)"/><path class="e" d="M706.467,551.513l-12.908,5.147a1.653,1.653,0,0,0-1.127,1.983l1.5,6a1.653,1.653,0,0,0,2.307,1.095l12.943-6.092a1.656,1.656,0,0,0,.971-2.126l-1.556-5.034a1.656,1.656,0,0,0-2.128-.971Z" transform="translate(-580.26 -423.249)"/><path class="c" d="M794.963,590.313a1.792,1.792,0,0,1-1.9-1.2l-11.049-32.03a1.79,1.79,0,0,1,1.109-2.276l3.843-1.326a1.792,1.792,0,0,1,2.276,1.109l11.049,32.031a1.793,1.793,0,0,1-1.109,2.276l-3.843,1.326A1.812,1.812,0,0,1,794.963,590.313Z" transform="translate(-645.133 -424.682)"/><path class="e" d="M790.227,552.846l4.241,13.233a1.653,1.653,0,0,1-.813,2.131l-5.58,2.66a1.653,1.653,0,0,1-2.312-1.084l-3.534-13.862a1.656,1.656,0,0,1,1.022-2.1l4.874-2A1.656,1.656,0,0,1,790.227,552.846Z" transform="translate(-645.293 -423.482)"/><path class="e" d="M749.487,713.563h-4.065a1.792,1.792,0,0,1-1.79-1.79V677.89a1.792,1.792,0,0,1,1.79-1.79h4.065a1.792,1.792,0,0,1,1.79,1.79v33.883A1.792,1.792,0,0,1,749.487,713.563Z" transform="translate(-617.393 -513.595)"/><path class="e" d="M778.679,713.563h-4.065a1.793,1.793,0,0,1-1.79-1.79V677.89a1.793,1.793,0,0,1,1.79-1.79h4.065a1.792,1.792,0,0,1,1.79,1.79v33.883A1.792,1.792,0,0,1,778.679,713.563Z" transform="translate(-638.544 -513.595)"/><path class="f" d="M752.584,583.685H734.112a1.93,1.93,0,0,1-1.928-1.928V551.75a11.164,11.164,0,1,1,22.328,0v30.007a1.93,1.93,0,0,1-1.928,1.928Z" transform="translate(-609.099 -415.407)"/><path class="e" d="M791.706,584.483h-9.365V531.556l.174.047a12.5,12.5,0,0,1,9.191,12.033Z" transform="translate(-645.441 -408.864)"/><path class="e" d="M735.691,584.483h-9.365V543.637a12.5,12.5,0,0,1,9.191-12.033l.174-.047Z" transform="translate(-604.854 -408.864)"/><circle class="c" cx="14.741" cy="14.741" r="14.741" transform="translate(119.368 89.49)"/><path class="e" d="M738.885,393.738s.826-22.861-9.916-15.424c0,0-6.2-20.8-21.346,10.329l-4.407,4.407s19.831-2.754,38.286,5.784Z" transform="translate(-588.109 -292.901)"/><path class="e" d="M763.023,466.368a5.068,5.068,0,0,1-2.917-.695,2.24,2.24,0,0,1-.881-1.673,1.507,1.507,0,0,1,.512-1.238,1.945,1.945,0,0,1,1.839-.265l-.743-5.433.546-.075.874,6.387-.456-.209a1.668,1.668,0,0,0-1.7.015.968.968,0,0,0-.318.8,1.693,1.693,0,0,0,.656,1.247,4.556,4.556,0,0,0,2.607.589Z" transform="translate(-628.689 -354.836)"/><rect class="e" width="2.967" height="0.551" transform="translate(126.478 102.697)"/><rect class="e" width="2.967" height="0.551" transform="translate(135.843 102.697)"/><path class="d" d="M621.7,564.756a1.653,1.653,0,0,1-2.195-.8L610,543.464a1.653,1.653,0,1,1,3-1.391l9.506,20.488a1.653,1.653,0,0,1-.8,2.195Z" transform="translate(-520.456 -415.791)"/><path class="c" d="M575.4,501.292a1.1,1.1,0,0,1-1.1-1.1V486.156H560.527a1.1,1.1,0,0,1,0-2.2H575.4a1.1,1.1,0,0,1,1.1,1.1v15.136A1.1,1.1,0,0,1,575.4,501.292Z" transform="translate(-483.924 -374.372)"/><path class="d" d="M568.946,486.224a13.221,13.221,0,1,1,6.429-17.557A13.221,13.221,0,0,1,568.946,486.224Zm-9.737-20.988a9.916,9.916,0,1,0,13.168,4.822A9.916,9.916,0,0,0,559.209,465.236Z" transform="translate(-477.209 -357.746)"/></g></svg>