<svg xmlns="http://www.w3.org/2000/svg" width="37.031" height="35.141" viewBox="0 0 37.031 35.141">
  <path id="Icon_awesome-arrow-right" data-name="Icon awesome-arrow-right" d="M17.4,4.5l.449-.615c.8-.8.969-.18,1.757.615L37.177,19.514c.8.8.8,1.283,0,2.07L19.609,38.057c-.8.8-.525.8-1.312,0l-.445-.814c-.8-.8-.377-.9.445-1.691L33.061,21.584H2.307c-1.126,0-1.563.049-1.563-1.077v-.478h0c0-1.126.438-1.058,1.563-1.058H33.061L18.3,6.276C17.468,5.489,16.591,5.3,17.4,4.5Z" transform="translate(-0.743 -3.512)" fill="#a7a9ac"/>
</svg>
