<svg xmlns="http://www.w3.org/2000/svg" width="162.775" height="203.128" viewBox="0 0 162.775 203.128">
  <g id="Group_349" data-name="Group 349" transform="translate(-1393.244 -1603.662)">
    <path id="Path_343" data-name="Path 343" d="M495.378,112.683h-1.039V84.205a16.482,16.482,0,0,0-16.482-16.482H417.523a16.482,16.482,0,0,0-16.482,16.482v156.23a16.482,16.482,0,0,0,16.482,16.482h60.333a16.482,16.482,0,0,0,16.482-16.482V132.953h1.039Z" transform="translate(1005.699 1535.939)" fill="#3f3d56"/>
    <rect id="Rectangle_53" data-name="Rectangle 53" width="160.759" height="0.531" transform="translate(1393.244 1785.088)" fill="#3f3d56"/>
    <path id="Path_344" data-name="Path 344" d="M503.4,96.175v156a12.3,12.3,0,0,1-12.309,12.309H430.47a12.3,12.3,0,0,1-12.309-12.309v-156A12.3,12.3,0,0,1,430.47,83.866h7.354a5.847,5.847,0,0,0,5.415,8.055H477.8a5.847,5.847,0,0,0,5.415-8.055h7.875A12.3,12.3,0,0,1,503.4,96.175Z" transform="translate(993.127 1524.085)" opacity="0.2"/>
    <path id="Path_347" data-name="Path 347" d="M461.045,83.866V264.484h-2.986a12.194,12.194,0,0,1-2.327-.221V84.086a12.193,12.193,0,0,1,2.327-.221Z" transform="translate(965.539 1524.085)" fill="#3f3d56"/>
    <path id="Path_348" data-name="Path 348" d="M694.045,84.625v179.1a12.271,12.271,0,0,1-4.267.76h-1.047V83.866h1.047A12.272,12.272,0,0,1,694.045,84.625Z" transform="translate(794.442 1524.085)" fill="#3f3d56"/>
    <rect id="Rectangle_55" data-name="Rectangle 55" width="85.241" height="5.314" transform="translate(1411.288 1638.026)" fill="#3f3d56"/>
    <rect id="Rectangle_56" data-name="Rectangle 56" width="47.249" height="5.314" transform="translate(1409.163 1689.568)" fill="#3f3d56"/>
    <rect id="Rectangle_60" data-name="Rectangle 60" width="47.249" height="5.314" transform="translate(1406.771 1661.14)" fill="#3f3d56"/>
    <rect id="Rectangle_57" data-name="Rectangle 57" width="42.775" height="5.314" transform="translate(1453.948 1727.029)" fill="#3f3d56"/>
    <rect id="Rectangle_58" data-name="Rectangle 58" width="46.566" height="5.314" transform="translate(1449.963 1660.609)" fill="#3f3d56"/>
    <path id="Path_349" data-name="Path 349" d="M42.514,4.6l-.616.356-3.223,1.86L15.3,20.317,9.982,23.385,0,29.148V23.011l9.982-5.763L15.3,14.182,31.271,4.958l7.4-4.275L39.857,0Z" transform="translate(1421.689 1692.141) rotate(30)" fill="#3f3d56"/>
    <path id="Path_365" data-name="Path 365" d="M42.514,4.6l-.616.356-3.223,1.86L15.3,20.317,9.982,23.385,0,29.148V23.011l9.982-5.763L15.3,14.182,31.271,4.958l7.4-4.275L39.857,0Z" transform="translate(1421.689 1723.757) rotate(30)" fill="#3f3d56"/>
    <rect id="Rectangle_59" data-name="Rectangle 59" width="45.389" height="5.314" transform="translate(1451.14 1765.287)" fill="#3f3d56"/>
    <path id="Path_350" data-name="Path 350" d="M639.838,198.619c0,16.874-30.553,54.465-30.553,54.465s-30.553-37.59-30.553-54.465a30.553,30.553,0,0,1,61.107,0Z" transform="translate(875.217 1462.256)" fill="#e02525"/>
    <ellipse id="Ellipse_84" data-name="Ellipse 84" cx="18.066" cy="18.066" rx="18.066" ry="18.066" transform="translate(1466.436 1641.48)" opacity="0.2"/>
    <path id="Path_352" data-name="Path 352" d="M769.978,187.246s-4.8-1.714-7.886,5.143a135.222,135.222,0,0,1-7.886,14.4l2.743.686s.686-4.8,2.4-5.486l-.686,6.172s20.573,7.2,29.83-.686l-.343-2.4s1.372.343,1.372,2.4l1.029-1.029a18.427,18.427,0,0,0-4.115-4.8c-2.025-1.8-2.721-5.226-2.961-7.367a8.914,8.914,0,0,0-2.053-4.855C779.372,187.048,775.635,184.522,769.978,187.246Z" transform="translate(746.364 1449.038)" fill="#2f2e41"/>
    <path id="Path_353" data-name="Path 353" d="M889.059,336.566s9.033,7.7,10.362,12.221-5.048,5.048-5.048,5.048l-13.815,1.328s-.266,6.376-2.657,7.173-.485-10.544-.485-10.544l13.5-3.8-6.111-6.376Z" transform="translate(656.417 1338.522)" fill="#fbbebe"/>
    <path id="Path_354" data-name="Path 354" d="M737.906,366.566l-1.063,14.081L731,404.558s-5.314,10.893-.8,11.159,4.251-10.362,4.251-10.362l8.5-22.583.8-15.409Z" transform="translate(765.326 1316.493)" fill="#fbbebe"/>
    <path id="Path_355" data-name="Path 355" d="M545.148,680.64V691l6.376-1.594-1.86-9.565Z" transform="translate(962.867 1104.44)" fill="#fbbebe"/>
    <path id="Path_356" data-name="Path 356" d="M673.148,680.64V691l6.376-1.594-1.86-9.565Z" transform="translate(868.874 1104.44)" fill="#fbbebe"/>
    <ellipse id="Ellipse_86" data-name="Ellipse 86" cx="8.767" cy="8.767" rx="8.767" ry="8.767" transform="translate(1509.343 1640.815)" fill="#fbbebe"/>
    <path id="Path_357" data-name="Path 357" d="M797.624,256.566s3.188,11.424-1.86,14.347,12.753,5.048,17.535-3.72c0,0-8.5-2.923-6.111-10.627Z" transform="translate(716.501 1397.269)" fill="#fbbebe"/>
    <path id="Path_358" data-name="Path 358" d="M767.545,314.1l-1.594-.531s-3.188,1.328-3.188,3.72-.531,11.956-.531,11.956l7.173.8Z" transform="translate(740.47 1355.412)" fill="#575a89"/>
    <path id="Path_359" data-name="Path 359" d="M762,422.5s-8.767,11.172-8.767,24.722,2.125,62.7,2.125,62.7,7.97,3.72,12.753-.8l4.251-55.793L789.1,510.987s7.97,1.594,11.69-1.063l-7.173-37.2s-.266-44.1-8.236-47.291S762,422.5,762,422.5Z" transform="translate(747.079 1275.422)" fill="#2f2e41"/>
    <path id="Path_360" data-name="Path 360" d="M785.4,773.917s-6.908-3.719-7.439,1.328-.8,8.236-.8,8.236-.8,6.111,6.642,4.782,4.782-5.048,4.782-5.048-2.657-4.251-2.657-5.314A36.911,36.911,0,0,0,785.4,773.917Z" transform="translate(729.524 1018.337)" fill="#2f2e41"/>
    <path id="Path_361" data-name="Path 361" d="M902,771.521s6.287-4.694,7.554.222,2,8.03,2,8.03,1.686,5.927-5.868,5.706-5.472-4.291-5.472-4.291,2-4.595,1.848-5.646A36.93,36.93,0,0,1,902,771.521Z" transform="translate(639.338 1020.611)" fill="#2f2e41"/>
    <path id="Path_362" data-name="Path 362" d="M873.825,300.368s3.454-1.86,6.908,2.125l6.908,7.97-5.314,5.845-10.1-6.111Z" transform="translate(659.695 1365.422)" fill="#575a89"/>
    <path id="Path_363" data-name="Path 363" d="M783.7,211.913A24.01,24.01,0,0,0,790.975,204s5.7,6.329,9.177,6.645.316-7.595.316-7.595l-6.329-1.582-6.012.633-4.747,3.164Z" transform="translate(724.939 1437.726)" fill="#2f2e41"/>
    <path id="Path_364" data-name="Path 364" d="M798.283,294.566s-3.718,5.879-14.877,3.072l-6.333,1.744-.842.232s.8,15.941,2.922,18.863,1.594,4.517,1.063,4.782-1.86-.266-1.063,1.063,1.86.531.8,1.328-1.594,3.72-1.594,3.72l24.974,3.188s-.8-10.362,1.328-15.675a68.486,68.486,0,0,0,2.657-7.439l-1.594-13.284Z" transform="translate(730.189 1369.364)" fill="#575a89"/>
    <ellipse id="Ellipse_87" data-name="Ellipse 87" cx="8.236" cy="8.236" rx="8.236" ry="8.236" transform="translate(1478.923 1720.918)" fill="#e02525"/>
    <path id="Icon_map-parking" data-name="Icon map-parking" d="M12.341,0H5.04V16.14H8.591V10.975h3.75c4.023,0,5.582-3.186,5.582-5.817S16.364,0,12.341,0Zm-.973,7.747H8.591V2.905h2.777c1.65,0,3.121.364,3.121,2.417S13.018,7.747,11.368,7.747Z" transform="translate(1475.313 1651.09)" fill="rgba(0,0,0,0.58)"/>
  </g>
</svg>
