<svg xmlns="http://www.w3.org/2000/svg" width="230.167" height="164.943" viewBox="0 0 230.167 164.943"><defs><style>.a{fill:#fff;}.b,.h{fill:#3f3d56;}.b{stroke:#707070;opacity:0.846;}.c{fill:#e02525;}.d{fill:#f2f2f2;}.e{fill:#25e08a;}.f{fill:#a0616a;}.g{fill:#2f2e41;}</style></defs><g transform="translate(0.5 -74)"><path class="a" d="M849.132,324.506a.359.359,0,0,1-.037.094q-2.036,3.958-3.983,7.956c-.225.459-.449.922-.67,1.381v-2.28q.332-.684.67-1.368,1.5-3.048,3.058-6.068a.44.44,0,0,1,.04-.067C848.518,323.711,849.282,324.013,849.132,324.506Z" transform="translate(-619.484 -221.968)"/><path class="b" d="M310.214,167.5H180.494c-3.893.005-7.049,4.217-7.052,9.415V300.737c0,5.2,3.159,9.41,7.052,9.415h129.72c3.893-.005,7.049-4.217,7.052-9.415V176.915c0-5.2-3.159-9.41-7.052-9.415Zm6.625,133.237c0,4.882-2.968,8.838-6.625,8.844H180.494c-3.657-.006-6.62-3.962-6.625-8.844V176.915c0-4.882,2.968-8.838,6.625-8.844h129.72c3.657.006,6.62,3.962,6.625,8.844Z" transform="translate(-173.441 -93)"/><path class="c" d="M275.5,382.346H235.612a6.381,6.381,0,0,1-6.374-6.374V357.12a6.381,6.381,0,0,1,6.374-6.374H275.5a6.381,6.381,0,0,1,6.374,6.374v18.852a6.381,6.381,0,0,1-6.374,6.374Z" transform="translate(-210.532 -239.788)"/><path class="c" d="M477.9,382.346H438.011a6.381,6.381,0,0,1-6.374-6.374V357.12a6.381,6.381,0,0,1,6.374-6.374H477.9a6.381,6.381,0,0,1,6.374,6.374v18.852a6.381,6.381,0,0,1-6.374,6.374Z" transform="translate(-345.075 -239.788)"/><path class="d" d="M477.515,526.871H437.628a6.574,6.574,0,0,1-6.567-6.567V501.452a6.574,6.574,0,0,1,6.567-6.567h39.888a6.574,6.574,0,0,1,6.567,6.567V520.3A6.574,6.574,0,0,1,477.515,526.871Z" transform="translate(-344.692 -335.604)"/><path class="d" d="M274.726,526.871H234.839a6.574,6.574,0,0,1-6.567-6.567V501.452a6.574,6.574,0,0,1,6.567-6.567h39.888a6.574,6.574,0,0,1,6.567,6.567V520.3A6.574,6.574,0,0,1,274.726,526.871Z" transform="translate(-209.89 -335.604)"/><circle class="a" cx="10.816" cy="10.816" r="10.816" transform="translate(34.208 115.942)"/><path class="e" d="M297.26,393.871a1.122,1.122,0,0,1-.675-.224l-.012-.009-2.542-1.946a1.129,1.129,0,0,1,1.374-1.793l1.646,1.262,3.891-5.074a1.129,1.129,0,0,1,1.583-.209l-.024.033.025-.032a1.131,1.131,0,0,1,.209,1.583l-4.576,5.968A1.13,1.13,0,0,1,297.26,393.871Z" transform="translate(-253.309 -262.987)"/><circle class="a" cx="10.816" cy="10.816" r="10.816" transform="translate(102.256 115.787)"/><path class="e" d="M500.235,393.408a1.122,1.122,0,0,1-.675-.224l-.012-.009-2.542-1.946a1.129,1.129,0,0,1,1.374-1.793l1.646,1.262,3.891-5.074a1.129,1.129,0,0,1,1.583-.209l-.024.033.025-.032A1.13,1.13,0,0,1,505.71,387l-4.576,5.968a1.13,1.13,0,0,1-.9.441Z" transform="translate(-388.235 -262.679)"/><path class="f" d="M700.769,474.866a3.6,3.6,0,0,0-.732-5.474L694,437.15l-7.344,2.723L694.9,470.71a3.621,3.621,0,0,0,5.869,4.156Z" transform="translate(-514.597 -297.224)"/><path class="f" d="M538.881,396.076a3.822,3.822,0,0,1,.007.6l14.279,10.99L557.216,406l3.308,5.783-6.882,3.64a2.907,2.907,0,0,1-3.445-.546l-14.272-14.714a3.814,3.814,0,1,1,2.957-4.092Z" transform="translate(-411.307 -267.633)"/><path class="f" d="M468,528.062h-4.11l-1.956-12.5H468Z" transform="translate(-307.069 -293.192)"/><path class="g" d="M630.319,721.672H617.066V721.5a5.158,5.158,0,0,1,5.159-5.158h8.095Z" transform="translate(-468.338 -482.818)"/><path class="f" d="M514,528.062h-4.11l-1.956-12.5H514Z" transform="translate(-337.647 -293.192)"/><path class="g" d="M676.319,721.672H663.066V721.5a5.158,5.158,0,0,1,5.159-5.158h8.095Z" transform="translate(-498.916 -482.818)"/><path class="g" d="M628.588,610.711a1.505,1.505,0,0,1-1.5-1.365l-3.582-48.173.169-.014,24.648-2.026.007.175,1.959,49.9a1.509,1.509,0,0,1-1.508,1.565h-4.833a1.5,1.5,0,0,1-1.491-1.279l-6.563-40.313a.168.168,0,0,0-.333.024l-.3,39.8a1.51,1.51,0,0,1-1.429,1.5l-5.166.2Z" transform="translate(-472.619 -378.312)"/><circle class="f" cx="8.234" cy="8.234" r="8.234" transform="translate(151.942 105.512)"/><path class="h" d="M629.766,455.021a40.579,40.579,0,0,1-10.651-1.456,1.512,1.512,0,0,1-1.085-1.571c1.109-16.66,1.369-29.589-.962-38.534a15.021,15.021,0,0,1,1.237-11.016,14.5,14.5,0,0,1,12.854-7.618h0q.376.007.76.027c7.97.41,14.181,7.621,13.844,16.073l-1.6,40.287a1.489,1.489,0,0,1-.944,1.356A38.3,38.3,0,0,1,629.766,455.021Z" transform="translate(-467.996 -269.088)"/><path class="h" d="M609.044,426.7l-6.168-7.558a1.932,1.932,0,0,1,.508-2.88l8.355-4.979a5.364,5.364,0,0,1,6.759,8.332l-6.53,7.165a1.932,1.932,0,0,1-2.924-.08Z" transform="translate(-458.616 -279.23)"/><path class="h" d="M671.384,420.822a1.93,1.93,0,0,1-1.061-1.209l-2.777-9.288a5.364,5.364,0,1,1,9.7-4.577l5.37,8.109a1.931,1.931,0,0,1-.792,2.816l-8.836,4.136A1.929,1.929,0,0,1,671.384,420.822Z" transform="translate(-501.553 -274.305)"/><path class="g" d="M632.516,346.462l-6.1-1.4c-.63-.144-1.386-.419-1.473-1.059-.117-.86,1.12-1.459,1.006-2.32-.111-.833-1.238-.941-2.042-1.187a3.054,3.054,0,0,1-1.9-3.8,2.806,2.806,0,0,1-3.985.338,3.528,3.528,0,0,1-.667-4.136,4.79,4.79,0,0,1,3.6-2.427,7.582,7.582,0,0,1,4.366.814c.089-.95,1.275-1.335,2.229-1.344a9.532,9.532,0,0,1,8.932,6.52c1.171,3.772.388,7.907-2.888,10.115Z" transform="translate(-468.271 -225.959)"/><path class="h" d="M592.8,731.17H465.064a.335.335,0,1,1,0-.67H592.8a.335.335,0,1,1,0,.67Z" transform="translate(-400.073 -492.227)"/></g></svg>