<svg xmlns="http://www.w3.org/2000/svg" width="130.42" height="105.287" viewBox="0 0 130.42 105.287">
  <g id="Group_353" data-name="Group 353" transform="translate(-461.009 -498.552)">
    <rect id="Rectangle_75" data-name="Rectangle 75" width="62.759" height="31.379" transform="matrix(0.461, -0.887, 0.887, 0.461, 507.187, 576.238)" fill="#4f617d"/>
    <path id="Path_378" data-name="Path 378" d="M728.439,639.166v-.1c-8.989,17.3-21.482,28.741-37.96,20.19L677.22,652.37l32.606-62.66,13.248,6.887C739.552,605.159,737.428,621.867,728.439,639.166Z" transform="translate(-143.916 -58.318)" fill="#797979"/>
    <path id="Path_379" data-name="Path 379" d="M724,634.79Z" transform="translate(-139.478 -54.04)" fill="#4a5c81"/>
    <path id="Path_380" data-name="Path 380" d="M715.091,651.093a60.926,60.926,0,0,0,10.237-14.737,64.719,64.719,0,0,0,5.66-14.551l-5.66-2.945L710,648.422Z" transform="translate(-140.806 -55.552)" fill="#ebebeb"/>
    <path id="Path_381" data-name="Path 381" d="M.022,0h41.19V1.15a4.73,4.73,0,0,1-4.73,4.73H4.73A4.73,4.73,0,0,1,0,1.15V0Z" transform="matrix(0.461, -0.887, 0.887, 0.461, 539.541, 582.018)" fill="#ebebeb"/>
    <path id="Path_382" data-name="Path 382" d="M6.306,0H7.839V66.678H0V6.317A6.306,6.306,0,0,1,6.306,0Z" transform="matrix(0.461, -0.887, 0.887, 0.461, 474.049, 563.452)" fill="#e3b92d"/>
    <path id="Path_383" data-name="Path 383" d="M0,0H1.533A6.307,6.307,0,0,1,7.839,6.307V66.678H0V0Z" transform="matrix(0.461, -0.887, 0.887, 0.461, 503.082, 507.555)" fill="#e3b92d"/>
    <path id="Path_384" data-name="Path 384" d="M679.188,573.326l-32.54,62.66-16.423-8.507c-18.1-9.405-18-27.164-9.022-44.463h0c8.989-17.3,23.463-27.591,41.606-18.2Z" transform="translate(-154.27 -62.708)" fill="#797979"/>
    <path id="Path_385" data-name="Path 385" d="M618.476,614.324l6.569-12.591-9.624-4.993C614.48,603.178,615.334,609.211,618.476,614.324Z" transform="translate(-149.814 -57.651)" fill="#fff6d5"/>
    <path id="Path_386" data-name="Path 386" d="M646.293,561.37l-6.569,12.591-9.624-4.993C634.885,564.512,640.3,561.731,646.293,561.37Z" transform="translate(-148.387 -61.007)" fill="#fff6d5"/>
    <path id="Path_387" data-name="Path 387" d="M6.307,0h5.474V7.839H0V6.328A6.307,6.307,0,0,1,6.307,0Z" transform="matrix(0.461, -0.887, 0.887, 0.461, 493.281, 586.451)" fill="#eaa82d"/>
    <path id="Path_388" data-name="Path 388" d="M.011,0h11.77V7.839H6.307A6.307,6.307,0,0,1,0,1.533V0Z" transform="matrix(-0.461, 0.887, -0.887, -0.461, 542.587, 508.296)" fill="#eaa82d"/>
    <path id="Path_389" data-name="Path 389" d="M682.167,580.967l-27.219,52.412-23.628-21.131a11.113,11.113,0,0,1-2.453-13.4l10.117-19.467a11.113,11.113,0,0,1,12.427-5.693Z" transform="translate(-148.622 -59.867)" fill="#797979"/>
    <path id="Path_390" data-name="Path 390" d="M654.709,630.779c-11.54-5.989-15.427-21.361-8.682-34.346s21.558-18.613,33.087-12.646" transform="translate(-147.19 -59.106)" fill="rgba(244,244,244,0.53)"/>
    <path id="Path_392" data-name="Path 392" d="M496.963,504.685,469.843,556.9l-5.223-2.715,3.679-2.825,22.281-42.887,1.161-6.5Z" transform="translate(43.24 20.505)" fill="#797979" opacity="0.05"/>
    <rect id="Rectangle_76" data-name="Rectangle 76" width="7.839" height="7.839" transform="matrix(0.461, -0.887, 0.887, 0.461, 518.177, 555.309)" fill="#53678b"/>
    <ellipse id="Ellipse_97" data-name="Ellipse 97" cx="7.839" cy="1.96" rx="7.839" ry="1.96" transform="matrix(0.461, -0.887, 0.887, 0.461, 521.606, 561.492)" fill="#53678b"/>
    <path id="Path_393" data-name="Path 393" d="M688.86,645.27A13.434,13.434,0,0,0,707.988,641" transform="translate(-142.812 -53.451)" opacity="0.05"/>
    <path id="Path_394" data-name="Path 394" d="M711.16,602a13.434,13.434,0,0,1,7.489,18.088" transform="translate(-140.696 -57.152)" opacity="0.05"/>
    <path id="Path_395" data-name="Path 395" d="M633.894,604.321s-1.544-14.058,12.657-24.361" transform="translate(-148.032 -59.243)" opacity="0.05"/>
    <path id="Path_396" data-name="Path 396" d="M639.894,607.441s-1.544-14.058,12.657-24.361" transform="translate(-147.463 -58.947)" opacity="0.05"/>
    <circle id="Ellipse_98" data-name="Ellipse 98" cx="5.88" cy="5.88" r="5.88" transform="matrix(0.461, -0.887, 0.887, 0.461, 498.002, 555.868)" fill="#ebebeb"/>
    <circle id="Ellipse_99" data-name="Ellipse 99" cx="3.92" cy="3.92" r="3.92" transform="matrix(0.461, -0.887, 0.887, 0.461, 508.85, 534.988)" fill="#ebebeb"/>
    <path id="Path_397" data-name="Path 397" d="M2.376,0h1.15A2.365,2.365,0,0,1,5.89,2.365V15.23a2.42,2.42,0,0,1-2.42,2.42H0V2.321A2.365,2.365,0,0,1,2.376,0Z" transform="translate(527.327 550.237) rotate(-101.535)" fill="#fddabc"/>
    <path id="Path_398" data-name="Path 398" d="M0,0H5.88V7.018a4.73,4.73,0,0,1-4.73,4.73H0Z" transform="translate(534.258 549.947) rotate(-101.45)" opacity="0.05"/>
    <path id="Path_399" data-name="Path 399" d="M4.873,0H15.154V12.175H4.873A4.872,4.872,0,0,1,0,7.3V4.927A4.872,4.872,0,0,1,4.873,0Z" transform="matrix(0.461, -0.887, 0.887, 0.461, 521.433, 578.866)" fill="#cdefff"/>
    <path id="Path_400" data-name="Path 400" d="M680.16,633.415l-1.96,4.193c-2.124,3.526-7.27,4.489-11.7,2.19l-5.146-2.672,2.792-5.387Z" transform="translate(-145.422 -54.33)" fill="#cdefff"/>
    <path id="Path_401" data-name="Path 401" d="M2.442,0H3.624A2.442,2.442,0,0,1,6.066,2.442v9.69H0V2.442A2.442,2.442,0,0,1,2.442,0Z" transform="matrix(0.461, -0.887, 0.887, 0.461, 505.177, 577.281)" fill="#fddabc"/>
    <path id="Path_402" data-name="Path 402" d="M677.3,626.447a9.055,9.055,0,0,0,5.8.876l.285-.558L672.88,621.29a9.065,9.065,0,0,0,4.423,5.157Z" transform="translate(-144.328 -55.321)" opacity="0.05"/>
    <path id="Path_403" data-name="Path 403" d="M4.883,0h10.27V12.131H4.872A4.872,4.872,0,0,1,0,7.259V4.883A4.872,4.872,0,0,1,4.872.011Z" transform="matrix(-0.461, 0.887, -0.887, -0.461, 551.862, 546.342)" fill="#cdefff"/>
    <path id="Path_404" data-name="Path 404" d="M685.3,611.089a9.054,9.054,0,0,1,4.062,4.248l-.285.558-10.511-5.474a9.066,9.066,0,0,1,6.734.668Z" transform="translate(-143.788 -56.387)" opacity="0.05"/>
    <circle id="Ellipse_100" data-name="Ellipse 100" cx="9.098" cy="9.098" r="9.098" transform="matrix(0.461, -0.887, 0.887, 0.461, 524.998, 566.516)" fill="#cdefff"/>
    <circle id="Ellipse_101" data-name="Ellipse 101" cx="9.098" cy="9.098" r="9.098" transform="matrix(0.461, -0.887, 0.887, 0.461, 524.545, 566.652)" fill="#cdefff"/>
    <path id="Path_405" data-name="Path 405" d="M673.089,614.883a9.088,9.088,0,0,0,.405,9.088A9.1,9.1,0,0,0,680.753,610a9.088,9.088,0,0,0-7.664,4.883Z" transform="translate(-144.405 -56.393)" fill="#797979"/>
  </g>
</svg>
