<svg xmlns="http://www.w3.org/2000/svg" width="21.021" height="21.428" viewBox="0 0 21.021 21.428">
  <path id="Icon_ionic-logo-google" data-name="Icon ionic-logo-google" d="M24.554,12.445l-.108-.459h-9.97v4.22h5.956A5.962,5.962,0,0,1,14.6,20.688a6.975,6.975,0,0,1-4.694-1.87,6.7,6.7,0,0,1-2-4.73A6.911,6.911,0,0,1,9.87,9.364,6.677,6.677,0,0,1,14.533,7.54,6.082,6.082,0,0,1,18.5,9.086l3-2.983a10.61,10.61,0,0,0-7.064-2.72h0A10.92,10.92,0,0,0,6.706,6.525a10.876,10.876,0,0,0-3.05,7.569,10.766,10.766,0,0,0,2.932,7.445,11.184,11.184,0,0,0,8.063,3.272A9.946,9.946,0,0,0,21.9,21.765a10.7,10.7,0,0,0,2.782-7.409A12.337,12.337,0,0,0,24.554,12.445Z" transform="translate(-3.656 -3.382)" fill="#797979" opacity="0.696"/>
</svg>
