<svg xmlns="http://www.w3.org/2000/svg" viewBox="0 0 260.97 103.11">
    <defs>
        <style>
            .cls-1{font-size:33.91px;font-family:Montserrat-Bold, Montserrat;font-weight:700;}.cls-2,.cls-4{fill:#db0a16;}.cls-3{letter-spacing:-0.01em;}.cls-4{font-size:12.21px;font-family:Gotham-Book, Gotham;}.cls-5{letter-spacing:-0.01em;}
        </style>
    </defs>
    <title>Asset 1</title>
    <g id="Layer_2">
        <path d="M60.62,99.37c-6,4.55-12.17,4.6-20.55,2a2.63,2.63,0,0,1-2.32-2.48c-.18-13.66,0-32.34.06-47A15.17,15.17,0,0,1,46.5,37.72q9.48-5,19-9.89C67,27.07,69,26,67.5,24.36c-.88-1-2.73-.68-3.78-.17-6.51,3.19-12.93,6.55-19.33,10C37.25,37.93,33.64,43.89,33.65,52c0,13.35,0,26.69,0,40v3.72c-5-2.78-9.44-5.19-13.79-7.78-.59-.35-.87-1.64-.88-2.5-.05-14.62-.1-29.25,0-43.87.05-5.87,3.23-10,8.24-12.8C33.57,25.32,40,21.91,46.34,18.46a8,8,0,0,0,1.9-1.14,2.06,2.06,0,0,0,.59-1.21,1.9,1.9,0,0,0-1.23-2.17,1.71,1.71,0,0,0-1.35,0c-3.76,1.77-7.36,3.87-11,5.85-3.47,1.88-7,3.68-10.4,5.65C18.09,29.28,14.59,35.1,14.6,43q0,19.22,0,38.43v3.18C3.93,78.86.85,73.05.29,61.48-.08,53.85-.09,46.33.21,38.27.54,29.32,1.9,22.93,8.85,19c9.81-5.61,19.7-11.07,29.59-16.53,6-3.31,12.05-3.18,18,.11q16.23,9,32.39,18.08c3.29,1.83,4.37,4.4,4.85,7.75.12.9.3,22.76.26,25a6,6,0,0,1-.34,2A10,10,0,0,1,89,60.73c-8,4.94-16.23,9.42-24.37,14.07a9.63,9.63,0,0,0-2.71,1.65,4.06,4.06,0,0,0-1.11,2.89"/>
    </g>
</svg>
