<svg xmlns="http://www.w3.org/2000/svg" width="26.379" height="21.425" viewBox="0 0 26.379 21.425">
  <path id="Icon_awesome-twitter" data-name="Icon awesome-twitter" d="M23.668,8.72c.017.234.017.469.017.7A15.277,15.277,0,0,1,8.3,24.806,15.278,15.278,0,0,1,0,22.379a11.184,11.184,0,0,0,1.306.067,10.827,10.827,0,0,0,6.712-2.31,5.416,5.416,0,0,1-5.055-3.749,6.818,6.818,0,0,0,1.021.084,5.718,5.718,0,0,0,1.423-.184A5.407,5.407,0,0,1,1.071,10.98v-.067a5.445,5.445,0,0,0,2.444.686A5.414,5.414,0,0,1,1.841,4.368a15.368,15.368,0,0,0,11.148,5.657,6.1,6.1,0,0,1-.134-1.239,5.412,5.412,0,0,1,9.357-3.7,10.644,10.644,0,0,0,3.431-1.306,5.392,5.392,0,0,1-2.377,2.979,10.838,10.838,0,0,0,3.113-.837,11.622,11.622,0,0,1-2.712,2.8Z" transform="translate(0 -3.381)" fill="#797979" opacity="0.696"/>
</svg>
