<svg xmlns="http://www.w3.org/2000/svg" width="84.724" height="71.516" viewBox="0 0 84.724 71.516">
  <g id="Group_350" data-name="Group 350" transform="translate(1.008 -2.035)">
    <g id="Group_256" data-name="Group 256" transform="translate(0.023 42.67)">
      <path id="Path_1824" data-name="Path 1824" d="M74.061,264.125H.141a41.157,41.157,0,0,0,8.246,23.5l1.813-.348a16.158,16.158,0,0,1,7.012.206l23.685,6a16.155,16.155,0,0,0,10.538-.9L78.944,280.34a41.1,41.1,0,0,0,1.755-4.394Z" transform="translate(-0.141 -264.125)" fill="#f8bda7" stroke="#000" stroke-width="2"/>
    </g>
    <g id="Group_274" data-name="Group 274" transform="translate(25.393 3.06)">
      <g id="Group_267" data-name="Group 267" transform="translate(1.881)">
        <g id="Group_257" data-name="Group 257" transform="translate(27.874)">
          <path id="Path_1825" data-name="Path 1825" d="M368.655,22.447c-.887-2.038-11.793-5.776-21.292-1.641A10,10,0,1,0,355.35,39.15c9.5-4.135,14.193-14.665,13.306-16.7Z" transform="translate(-341.351 -18.94)" fill="#8cce52" stroke="#000" stroke-width="2"/>
        </g>
        <g id="Group_258" data-name="Group 258" transform="translate(27.874 3.897)">
          <path id="Path_1826" data-name="Path 1826" d="M357.246,53.765a10,10,0,0,1-13.993-9.423,10,10,0,0,0,12.1,15.031c9-3.919,13.687-13.577,13.4-16.313A25.351,25.351,0,0,1,357.246,53.765Z" transform="translate(-341.355 -43.059)" fill="#6eba3b" stroke="#000" stroke-width="2"/>
        </g>
        <g id="Group_260" data-name="Group 260" transform="translate(23.838 5.81)">
          <g id="Group_259" data-name="Group 259">
            <path id="Path_1827" data-name="Path 1827" d="M317.775,84.546a1.212,1.212,0,0,1-1.2-1.07A23.343,23.343,0,0,1,323.345,63.4a38.5,38.5,0,0,1,13.511-8.409,1.212,1.212,0,0,1,.88,2.258c-9.515,3.708-20.494,11.219-18.755,25.948a1.212,1.212,0,0,1-1.061,1.345A1.238,1.238,0,0,1,317.775,84.546Z" transform="translate(-316.372 -54.903)" fill="#5fa027" stroke="#000" stroke-width="2"/>
          </g>
        </g>
        <g id="Group_261" data-name="Group 261" transform="translate(36.516 2.65)">
          <path id="Path_1828" data-name="Path 1828" d="M396.189,44.213a1.212,1.212,0,0,1-1.192-1,10.411,10.411,0,0,1,1.484-7.287,1.212,1.212,0,0,1,2.072,1.257,7.921,7.921,0,0,0-1.17,5.607,1.211,1.211,0,0,1-.981,1.4A1.245,1.245,0,0,1,396.189,44.213Z" transform="translate(-394.847 -35.343)" fill="#5fa027" stroke="#000" stroke-width="2"/>
        </g>
        <g id="Group_262" data-name="Group 262" transform="translate(32.348 12.42)">
          <path id="Path_1829" data-name="Path 1829" d="M375.734,100.047a10.21,10.21,0,0,1-6.261-2.094A1.212,1.212,0,0,1,371.04,96.1a7.922,7.922,0,0,0,6.377,1.349,1.212,1.212,0,0,1,.478,2.376A10.928,10.928,0,0,1,375.734,100.047Z" transform="translate(-369.047 -95.819)" fill="#5fa027" stroke="#000" stroke-width="2"/>
        </g>
        <g id="Group_263" data-name="Group 263" transform="translate(0 1.49)">
          <path id="Path_1830" data-name="Path 1830" d="M168.882,31.23c-.632,1.607,3.3,9.649,10.792,12.595a7.77,7.77,0,0,0,5.689-14.46C177.875,26.419,169.514,29.624,168.882,31.23Z" transform="translate(-168.816 -28.165)" fill="#8cce52" stroke="#000" stroke-width="2"/>
        </g>
        <g id="Group_264" data-name="Group 264" transform="translate(0 2.727)">
          <path id="Path_1831" data-name="Path 1831" d="M182.327,46.724a19.476,19.476,0,0,1-10.617-10.9c-1.575.6-2.621,1.3-2.828,1.829-.632,1.607,3.3,9.649,10.792,12.595a7.77,7.77,0,0,0,10.075-4.386c.016-.039.028-.079.043-.119a7.763,7.763,0,0,1-7.465.985Z" transform="translate(-168.816 -35.82)" fill="#6eba3b" stroke="#000" stroke-width="2"/>
        </g>
        <g id="Group_266" data-name="Group 266" transform="translate(7.714 6.134)">
          <g id="Group_265" data-name="Group 265">
            <path id="Path_1832" data-name="Path 1832" d="M236.92,71.76a1.211,1.211,0,0,1-1.028-.569A24.639,24.639,0,0,0,217.6,59.318a1.212,1.212,0,1,1,.353-2.4,26.936,26.936,0,0,1,19.991,12.986,1.212,1.212,0,0,1-1.026,1.854Z" transform="translate(-216.567 -56.907)" fill="#5fa027" stroke="#000" stroke-width="2"/>
          </g>
        </g>
      </g>
      <g id="Group_268" data-name="Group 268" transform="translate(10.421 24.986)">
        <circle id="Ellipse_217" data-name="Ellipse 217" cx="6.352" cy="6.352" r="6.352" fill="#9a4e16" stroke="#000" stroke-width="2"/>
      </g>
      <g id="Group_269" data-name="Group 269" transform="translate(34.37 24.986)">
        <path id="Path_1833" data-name="Path 1833" d="M385.524,177.682a4.3,4.3,0,0,0-2.674.928,6.556,6.556,0,1,0-1.117,5.466,4.321,4.321,0,1,0,3.791-6.394Z" transform="translate(-369.921 -173.597)" fill="#894010" stroke="#000" stroke-width="2"/>
      </g>
      <g id="Group_270" data-name="Group 270" transform="translate(48.699 33.259)">
        <path id="Path_1834" data-name="Path 1834" d="M458.617,231.158a6.329,6.329,0,0,0,1.661,4.283,4.67,4.67,0,0,0,4.831,7.544,41.31,41.31,0,0,0,2.132-13.14,41.8,41.8,0,0,0-.269-4.715,6.352,6.352,0,0,0-8.355,6.028Z" transform="translate(-458.617 -224.806)" fill="#9a4e16" stroke="#000" stroke-width="2"/>
      </g>
      <g id="Group_271" data-name="Group 271" transform="translate(0 30.217)">
        <circle id="Ellipse_218" data-name="Ellipse 218" cx="10.208" cy="10.208" r="10.208" fill="#a85822" stroke="#000" stroke-width="2"/>
      </g>
      <g id="Group_272" data-name="Group 272" transform="translate(29.947 31.338)">
        <path id="Path_1835" data-name="Path 1835" d="M366.481,222.564a9.649,9.649,0,0,0-18.872-2.832,8.244,8.244,0,1,0,9.84,12.458A9.647,9.647,0,0,0,366.481,222.564Z" transform="translate(-342.54 -212.916)" fill="#a85822" stroke="#000" stroke-width="2"/>
      </g>
      <g id="Group_273" data-name="Group 273" transform="translate(9.474 26.687)">
        <path id="Path_1836" data-name="Path 1836" d="M234.572,184.131a11.045,11.045,0,0,0-11.045,11.045c0,.29.015.576.037.861h-.037A7.707,7.707,0,1,0,231,205.628a11.045,11.045,0,1,0,3.571-21.5Z" transform="translate(-215.82 -184.131)" fill="#ba6831" stroke="#000" stroke-width="2"/>
      </g>
    </g>
    <g id="Group_275" data-name="Group 275" transform="translate(11.996 36.451)">
      <path id="Path_1837" data-name="Path 1837" d="M118.193,238.305H103.572v-1.494a11.187,11.187,0,0,0-11.187-11.187H85.437a11.187,11.187,0,0,0,0,22.374h32.756a4.847,4.847,0,1,0,0-9.693Z" transform="translate(-74.25 -225.625)" fill="#ffcbb8" stroke="#000" stroke-width="2"/>
    </g>
  </g>
</svg>
