<svg xmlns="http://www.w3.org/2000/svg" width="62.081" height="66.515" viewBox="0 0 62.081 66.515">
  <g id="corporation" transform="translate(0 0)">
    <path id="Path_1852" data-name="Path 1852" d="M317.543,336l-4.7,7.521a5.543,5.543,0,0,0-.842,2.938v10.6h3.326l2.217-9.977,6.651-8.314V336Z" transform="translate(-273.2 -291.657)" fill="#42566b"/>
    <path id="Path_1853" data-name="Path 1853" d="M264,102.908l2.5,5a5.531,5.531,0,0,0,2.479,2.479l1.451.726,1.33.665,4.434,8.869H287.28l1.109-13.3.967-3.383.45-1.578a5.546,5.546,0,0,0-1.05-5.047l-5.094-6.184-3.033,1.781,4.434,7.76-.9,1.195-2.431,3.24-5.543,2.217-3.233-1.293-2.31-.924-3.326-4.434Z" transform="translate(-231.851 -80.736)" fill="rgba(237,28,36,0.3)"/>
    <path id="Path_1854" data-name="Path 1854" d="M363.086,304v12.1a5.544,5.544,0,0,0,.5,2.294l5.046,11.1H365.3l-6.856-8.815a5.543,5.543,0,0,1-1.112-2.619l-.576-4.03a5.543,5.543,0,0,0-2.161-3.65l-2.6-1.948V304Z" transform="translate(-307.657 -264.091)" fill="#4d6378"/>
    <path id="Path_1855" data-name="Path 1855" d="M264,162.217l2.5,5a5.531,5.531,0,0,0,2.479,2.479l1.451.726,2.532-5.062-2.31-.924L267.326,160Z" transform="translate(-231.851 -140.046)" fill="#f5c99d"/>
    <path id="Path_1856" data-name="Path 1856" d="M350.651,168v3.326a3.326,3.326,0,0,1-3.326,3.326h0A3.326,3.326,0,0,1,344,171.326V168Z" transform="translate(-300.765 -146.937)" fill="#f5c99d"/>
    <path id="Path_1857" data-name="Path 1857" d="M350.651,145.239H344v-1.109a2.553,2.553,0,0,1,2.553-2.553h0a2.553,2.553,0,0,1,1.416.429l2.683,1.788Z" transform="translate(-300.765 -124.176)" fill="#b1792c"/>
    <path id="Path_1858" data-name="Path 1858" d="M118.651,336l4.7,7.521a5.543,5.543,0,0,1,.843,2.938v10.6h-3.326l-2.217-9.977L112,338.771V336Z" transform="translate(-100.914 -291.657)" fill="#42566b"/>
    <path id="Path_1859" data-name="Path 1859" d="M86.251,102.908l-2.5,5a5.531,5.531,0,0,1-2.479,2.479l-1.451.726-1.33.665-4.434,8.869H62.971l-1.109-13.3-.967-3.383-.45-1.578a5.546,5.546,0,0,1,1.05-5.047l5.094-6.184,3.033,1.781-4.434,7.76.9,1.195,2.431,3.24,5.543,2.217,3.233-1.293,2.31-.924,3.326-4.434Z" transform="translate(-56.319 -80.736)" fill="rgba(237,28,36,0.3)"/>
    <path id="Path_1860" data-name="Path 1860" d="M45.543,304v12.1a5.543,5.543,0,0,1-.5,2.294L40,329.5h3.326l6.856-8.815a5.543,5.543,0,0,0,1.112-2.619l.576-4.03a5.543,5.543,0,0,1,2.161-3.65l2.6-1.948V304Z" transform="translate(-38.891 -264.091)" fill="#4d6378"/>
    <path id="Path_1861" data-name="Path 1861" d="M65.188,100.691l.9,1.195-5.188,2.074-.45-1.578a5.546,5.546,0,0,1,1.05-5.047l5.094-6.184,3.033,1.781Z" transform="translate(-56.319 -80.736)" fill="#f5c99d"/>
    <path id="Path_1862" data-name="Path 1862" d="M192.292,162.217l-2.5,5a5.531,5.531,0,0,1-2.479,2.479l-1.451.726-2.532-5.062,2.31-.924L188.966,160Z" transform="translate(-162.36 -140.046)" fill="#f5c99d"/>
    <path id="Path_1863" data-name="Path 1863" d="M139.4,29.954a2.414,2.414,0,0,0,.521,2.633l3.172,3.171-6.272,6.272-3.171-3.172a2.414,2.414,0,0,0-2.633-.521l-.029.011a2.412,2.412,0,0,0-1.491,2.231v4.484h-8.869V40.579a2.412,2.412,0,0,0-1.491-2.231l-.029-.011a2.414,2.414,0,0,0-2.633.521l-3.171,3.172-6.272-6.272,3.172-3.171a2.414,2.414,0,0,0,.521-2.633.249.249,0,0,0-.011-.029,2.412,2.412,0,0,0-2.231-1.491H104V24h13.3a7.76,7.76,0,1,0,15.52,0h13.3v4.434h-4.484a2.412,2.412,0,0,0-2.231,1.491.254.254,0,0,0-.011.029Z" transform="translate(-94.023 -22.891)" fill="#ed1c24"/>
    <path id="Path_1864" data-name="Path 1864" d="M120,168v3.326a3.326,3.326,0,0,0,3.326,3.326h0a3.326,3.326,0,0,0,3.326-3.326V168Z" transform="translate(-107.806 -146.937)" fill="#f5c99d"/>
    <path id="Path_1865" data-name="Path 1865" d="M120,145.239h6.651v-1.109a2.553,2.553,0,0,0-2.553-2.553h0a2.553,2.553,0,0,0-1.416.429L120,143.795Z" transform="translate(-107.806 -124.176)" fill="#b1792c"/>
    <path id="Path_1866" data-name="Path 1866" d="M172.634,29.954a2.414,2.414,0,0,0,.521,2.633l3.172,3.171-6.272,6.272-3.171-3.172a2.414,2.414,0,0,0-2.633-.521l-.029.011a2.412,2.412,0,0,0-1.491,2.231v4.484h-8.869V40.579a2.412,2.412,0,0,0-1.491-2.231l-.029-.011a2.414,2.414,0,0,0-2.633.521l-3.171,3.172-3.959-3.959,3.368-3.369a4.456,4.456,0,0,1,5.625-.528A12.2,12.2,0,0,0,170.491,24h8.869v4.434h-4.484a2.412,2.412,0,0,0-2.231,1.491A.248.248,0,0,0,172.634,29.954Z" transform="translate(-127.257 -22.891)" fill="#ed1c24"/>
    <path id="Path_1867" data-name="Path 1867" d="M93.981,80.947l-5.046-11.1a4.405,4.405,0,0,1-.4-1.835V55.955l1.1-13.149,1.388-4.857a6.651,6.651,0,0,0-1.261-6.055l-5.093-6.185a1.109,1.109,0,0,0-1.417-.251l-2.534,1.488-2.033-2.033A1.3,1.3,0,0,1,78.4,23.49l.014-.033a1.3,1.3,0,0,1,1.206-.805H84.1a1.109,1.109,0,0,0,1.109-1.109V17.109A1.109,1.109,0,0,0,84.1,16H70.8a1.109,1.109,0,0,0-1.109,1.109,6.651,6.651,0,1,1-13.3,0A1.109,1.109,0,0,0,55.28,16h-13.3a1.109,1.109,0,0,0-1.109,1.109v4.434a1.109,1.109,0,0,0,1.109,1.109h4.484a1.3,1.3,0,0,1,1.205.8l.014.033a1.3,1.3,0,0,1-.282,1.424l-2.033,2.033L42.83,25.457a1.109,1.109,0,0,0-1.417.251L36.32,31.894a6.651,6.651,0,0,0-1.261,6.055l1.388,4.857,1.1,13.149V68.011a4.4,4.4,0,0,1-.4,1.835L32.1,80.947a1.109,1.109,0,0,0,1.009,1.567h3.326a1.108,1.108,0,0,0,.875-.428l6.856-8.815A6.662,6.662,0,0,0,45.5,70.129l.269-1.885,2.3,2.873a4.46,4.46,0,0,1,.866,1.808l1.938,8.722a1.109,1.109,0,0,0,1.082.868H55.28a1.109,1.109,0,0,0,1.109-1.109V70.8a6.645,6.645,0,0,0-1.011-3.525l-4.532-7.251V56.171L55,47.866l2.451-1.226a6.691,6.691,0,0,0,2.975-2.975l2.193-4.386h.847l2.193,4.386a6.691,6.691,0,0,0,2.975,2.975l2.451,1.226,4.152,8.3v3.855L70.7,67.276A6.645,6.645,0,0,0,69.691,70.8v10.6A1.109,1.109,0,0,0,70.8,82.515h3.326a1.109,1.109,0,0,0,1.082-.868l1.938-8.721a4.458,4.458,0,0,1,.866-1.808l2.3-2.873.269,1.885a6.661,6.661,0,0,0,1.334,3.143l6.856,8.815a1.108,1.108,0,0,0,.875.428h3.326a1.109,1.109,0,0,0,1.009-1.567Zm-10.424-53.1L88.048,33.3a4.433,4.433,0,0,1,.84,4.037l-.114.4-2.7-1.082.028-.037a1.109,1.109,0,0,0,.076-1.215L82.283,28.6Zm-5,14.758a2.22,2.22,0,0,1-2.217-2.217V38.172h4.434v2.217A2.22,2.22,0,0,1,78.56,42.606ZM71.5,39.475l-2.917-3.89v-1.9a1.3,1.3,0,0,1,.8-1.205l.033-.014a1.3,1.3,0,0,1,1.424.282l3.171,3.171a1.112,1.112,0,0,0,.111.1v4.371c0,.046,0,.092,0,.138ZM59.7,33.4a16.758,16.758,0,0,0,6.676,0c-.008.095-.012.19-.012.287v3.376H59.714V33.687C59.714,33.591,59.71,33.5,59.7,33.4Zm-2.205.285v1.9l-2.917,3.89-2.629,1.052c0-.046,0-.092,0-.138V36.018a1.11,1.11,0,0,0,.111-.1l3.171-3.171a1.3,1.3,0,0,1,1.386-.295l.117.049A1.3,1.3,0,0,1,57.5,33.687ZM45.3,40.389V38.172h4.434v2.217a2.217,2.217,0,1,1-4.434,0Zm-3.11-4.517,3-5.254L47.078,32.5a3.656,3.656,0,0,0-.816.406L43.579,34.7a1.108,1.108,0,0,0-.494.922v1.444h0Zm6.1-1.362a1.446,1.446,0,0,1,1.444,1.444H45.689l1.8-1.2A1.439,1.439,0,0,1,48.293,34.51Zm30.3.243,1.8,1.2H76.343a1.444,1.444,0,0,1,2.245-1.2Zm4.406,2.31V35.619A1.109,1.109,0,0,0,82.5,34.7l-2.683-1.788A3.657,3.657,0,0,0,79,32.5l1.884-1.884,3,5.254Zm-3.493-8.2-4.7,4.7-2.387-2.387c-.07-.07-.143-.136-.218-.2a16.763,16.763,0,0,0,4.722-4.722c.063.075.129.148.2.218Zm3.493-8.432H79.619c-.1,0-.192,0-.287.012a16.58,16.58,0,0,0,.3-2.229h3.364ZM48.966,26.48a3.512,3.512,0,0,0,.762-3.843l-.011-.026a3.51,3.51,0,0,0-3.255-2.176H43.086V18.217H54.24a8.869,8.869,0,0,0,17.6,0h5.57a14.427,14.427,0,0,1-19.8,12.246c-.023-.01-.045-.022-.069-.031l-.014-.006-.013-.006-.053-.02a14.4,14.4,0,0,1-4.5-3L51.4,28.986a16.771,16.771,0,0,0,2.476,2c-.072.061-.142.125-.21.193L51.282,33.57l-4.7-4.7ZM38.032,33.3l4.492-5.455L43.8,28.6,39.906,35.4a1.109,1.109,0,0,0,.076,1.215l.028.037-2.7,1.082-.114-.4A4.434,4.434,0,0,1,38.032,33.3Zm5.849,32.482-.576,4.03a4.442,4.442,0,0,1-.889,2.1L35.892,80.3H34.83l4.334-9.534a6.608,6.608,0,0,0,.6-2.752V57.017h8.869v2.771L46.474,61.4a6.608,6.608,0,0,0-2.594,4.381ZM54.171,70.8v9.5H52.843L51.1,72.444a6.69,6.69,0,0,0-1.3-2.712l-3.537-4.421A4.4,4.4,0,0,1,47.8,63.178l1.632-1.224,4.061,6.5A4.428,4.428,0,0,1,54.171,70.8ZM53.18,46.544,49.052,54.8H39.671L38.647,42.514a1.119,1.119,0,0,0-.039-.212l-.692-2.421,3.47-1.388,1.717,2.29a4.439,4.439,0,0,0,2.121,3.4l-1.019,7.136,2.195.314.973-6.812c.049,0,.1,0,.147,0a4.423,4.423,0,0,0,3.272-1.445l1.643-.657,1.579,3.159-.339.169a1.109,1.109,0,0,0-.5.5Zm5.261-3.87a4.462,4.462,0,0,1-1.983,1.983l-.46.23-1.5-2.993,1.191-.476a1.109,1.109,0,0,0,.475-.364l1.611-2.147a1.1,1.1,0,0,0,.828.374h1.532Zm9.2,0-1.7-3.394h1.532a1.1,1.1,0,0,0,.828-.374l1.61,2.147a1.109,1.109,0,0,0,.475.364l1.191.476-1.5,2.993-.46-.23a4.461,4.461,0,0,1-1.983-1.983ZM72.4,46.049l-.339-.169,1.579-3.159,1.643.657a4.424,4.424,0,0,0,3.272,1.445c.049,0,.1,0,.147,0l.973,6.812,2.195-.314-1.019-7.136a4.439,4.439,0,0,0,2.121-3.4l1.717-2.29,3.47,1.388L87.471,42.3a1.119,1.119,0,0,0-.039.212L86.409,54.8H77.028L72.9,46.544a1.109,1.109,0,0,0-.5-.5Zm3.876,23.683a6.688,6.688,0,0,0-1.3,2.712L73.237,80.3H71.909V70.8a4.428,4.428,0,0,1,.674-2.35l4.061-6.5,1.632,1.224a4.4,4.4,0,0,1,1.542,2.133ZM90.188,80.3,83.664,71.91a4.441,4.441,0,0,1-.889-2.1l-.576-4.03A6.608,6.608,0,0,0,79.606,61.4l-2.154-1.616V57.017H86.32V68.011a6.609,6.609,0,0,0,.6,2.752L91.25,80.3Z" transform="translate(-32 -16)"/>
  </g>
</svg>
