<svg xmlns="http://www.w3.org/2000/svg" width="72.135" height="80.156" viewBox="0 0 72.135 80.156">
  <g id="career" transform="translate(0)">
    <path id="Path_1838" data-name="Path 1838" d="M48.283,460.219H33.023v-5.383A2.836,2.836,0,0,1,35.859,452h9.588a2.836,2.836,0,0,1,2.836,2.836Zm0,0" transform="translate(-27.853 -381.237)" fill="rgba(237,28,36,0.3)"/>
    <path id="Path_1839" data-name="Path 1839" d="M145.757,422.293H130.5V409.871a2.836,2.836,0,0,1,2.836-2.836h9.589a2.836,2.836,0,0,1,2.836,2.836Zm0,0" transform="translate(-110.066 -343.312)" fill="rgba(237,28,36,0.56)"/>
    <path id="Path_1840" data-name="Path 1840" d="M243.233,381.551h-15.26V361.566a2.836,2.836,0,0,1,2.836-2.836H240.4a2.836,2.836,0,0,1,2.836,2.836Zm0,0" transform="translate(-192.282 -302.569)" fill="rgba(237,28,36,0.3)"/>
    <path id="Path_1841" data-name="Path 1841" d="M340.709,319.752h-15.26V288.3a2.836,2.836,0,0,1,2.836-2.836h9.588a2.836,2.836,0,0,1,2.836,2.836Zm0,0" transform="translate(-274.498 -240.77)" fill="#ffcbb8"/>
    <path id="Path_1842" data-name="Path 1842" d="M351.906,28.5h15.349a.516.516,0,0,0,.341-.9l-3.987-3.51a.516.516,0,0,1,0-.774L367.6,19.8a.516.516,0,0,0-.341-.9H351.906Zm0,0" transform="translate(-296.813 -15.943)" fill="#ed1c24"/>
    <path id="Path_1843" data-name="Path 1843" d="M239.353,108.93l-16.627,9.029c-1.484.805-1.889,2.222-2.407,4.046L217.012,133.7l8.1-3.32,3.145-9.507,8.368-5.084A6.123,6.123,0,0,0,239.353,108.93Zm0,0" transform="translate(-183.037 -91.876)" fill="#83d9ff"/>
    <path id="Path_1844" data-name="Path 1844" d="M239.353,108.93l-1.918,1.041a6.121,6.121,0,0,1-2.83,4.059l-7.624,4.632a2.366,2.366,0,0,0-1.017,1.278l-1.089,3.291a12.34,12.34,0,0,1-7.036,7.542l-.827,2.924,8.1-3.321,3.145-9.506,8.368-5.084A6.125,6.125,0,0,0,239.353,108.93Zm0,0" transform="translate(-183.037 -91.876)" fill="#5fc9ed"/>
    <path id="Path_1845" data-name="Path 1845" d="M225.115,245.926l4.789,5.659c.793,1.051,1.484,1.789,1.341,2.945l-1.12,9.051H227.2l-.764-7.782a1.3,1.3,0,0,0-.779-1.066l-8.647-5.487Zm0,0" transform="translate(-183.037 -207.425)" fill="#38627c"/>
    <path id="Path_1846" data-name="Path 1846" d="M183.663,249.246l-.467,8.579a3.77,3.77,0,0,1-.209,1.721l-5.514,11.6h3.1l8.291-11.013a4.482,4.482,0,0,0,.7-2.035l2.2-12.175Zm0,0" transform="translate(-149.688 -207.425)" fill="#4f7693"/>
    <path id="Path_1847" data-name="Path 1847" d="M233.465,113.314l1.36,2.654a2.538,2.538,0,0,1-1.1,3.416l-1.051.538a2.538,2.538,0,0,1-3.415-1.1l-1.36-2.654a2.538,2.538,0,0,1,1.1-3.416l1.051-.538A2.537,2.537,0,0,1,233.465,113.314Zm0,0" transform="translate(-191.982 -94.409)" fill="#fecbaa"/>
    <path id="Path_1848" data-name="Path 1848" d="M71.559,10.775,68.134,7.759l3.425-3.016a1.691,1.691,0,0,0-1.117-2.96H56.268V1.175a1.175,1.175,0,1,0-2.35,0V17.019L44.27,22.258a3.717,3.717,0,0,0-.382-1.234L42.529,18.37a3.717,3.717,0,0,0-5-1.612l-1.051.538a3.712,3.712,0,0,0-1.612,5l1.359,2.655A3.689,3.689,0,0,0,37.567,26.4a10.291,10.291,0,0,0-1.416,3.408l-.253.9a1.174,1.174,0,0,0,.811,1.45,1.156,1.156,0,0,0,.32.045,1.176,1.176,0,0,0,1.13-.856l.253-.895c.515-1.816.831-2.788,1.838-3.335l1.8-.98.223-.114c.074-.038.143-.081.213-.123l12.862-6.984a4.972,4.972,0,0,1-2.372,3.992l-8.364,5.082-.029.017-2.6,1.581a1.175,1.175,0,0,0,1.123,2.061l-1.975,5.971-1.444.592-3.926,1.609,1.131-4a1.175,1.175,0,0,0-2.261-.64L32.844,41.5a1.128,1.128,0,0,0-.042.256l-.468,8.593a3.932,3.932,0,0,1-.1,1.267l-5.2,10.931H23.266a4.015,4.015,0,0,0-4.011,4.011V69.95a3.979,3.979,0,0,0-1.661-.361H8.006A4.015,4.015,0,0,0,4,73.6v4.207H1.175a1.175,1.175,0,0,0,0,2.35H70.441a1.175,1.175,0,0,0,0-2.35H67.385V47.526a4.015,4.015,0,0,0-4.011-4.011H56.268V23.021a7.326,7.326,0,0,0,1.18-6.279,1.175,1.175,0,0,0-1.18-.862V13.735H70.441a1.691,1.691,0,0,0,1.118-2.96ZM36.876,20.182a1.353,1.353,0,0,1,.676-.8l1.051-.538a1.363,1.363,0,0,1,1.834.591L41.8,22.1a1.365,1.365,0,0,1-.453,1.751l-.383.207-.808.414a1.364,1.364,0,0,1-1.834-.592l-1.36-2.654A1.354,1.354,0,0,1,36.876,20.182ZM34.516,62.91a3.988,3.988,0,0,0-1.29-.344l1.29-1.713Zm5.578-9.466a4.427,4.427,0,0,0,.847-2.1c.032-.152.612-3.318.612-3.318s.549.342.606.366a.125.125,0,0,1,.072.1l.639,6.5H38.932Zm6.947-6.484-.992,8.021H45.23l-.661-6.721a2.475,2.475,0,0,0-1.384-1.986L42,45.525l.787-4.362S46.106,45.1,46.183,45.2C46.869,46.094,47.1,46.451,47.041,46.96Zm-12.69,5.686a6.369,6.369,0,0,0,.329-2.181l.427-7.838L40.541,40.4l-.988,5.471c0,.015-.006.03-.008.045l-.817,4.524A4.475,4.475,0,0,1,38.236,52L30.3,62.549h-.654ZM6.345,73.6a1.662,1.662,0,0,1,1.661-1.66h9.588a1.663,1.663,0,0,1,1.662,1.66v4.208H6.345Zm15.26,0V66.559A1.663,1.663,0,0,1,23.266,64.9h9.588a1.663,1.663,0,0,1,1.661,1.661V77.807H21.605V73.6ZM65.036,47.526V77.807H52.126V70.763a1.175,1.175,0,0,0-2.35,0v7.044H36.865V59a1.662,1.662,0,0,1,1.661-1.66h9.588A1.662,1.662,0,0,1,49.775,59v5.889a1.175,1.175,0,0,0,2.35,0V47.526a1.663,1.663,0,0,1,1.662-1.661h9.588A1.663,1.663,0,0,1,65.036,47.526ZM53.787,43.516a4.015,4.015,0,0,0-4.011,4.011v7.822A3.976,3.976,0,0,0,48.414,55l.958-7.749a4.537,4.537,0,0,0-1.327-3.48c-.079-.1-4.645-5.525-4.645-5.525l2.8-8.47,7.716-4.688v18.43Zm2.481-32.131V4.134H68.7L66.019,6.491a1.69,1.69,0,0,0,0,2.538L68.7,11.386H56.268Zm0,0" transform="translate(0 0)"/>
  </g>
</svg>
